<svg version="1.1" viewBox="0.0 0.0 600.0 371.0" fill="none" stroke="none" stroke-linecap="square" stroke-miterlimit="10" width="600" height="371" xmlns:xlink="http://www.w3.org/1999/xlink" xmlns="http://www.w3.org/2000/svg"><path fill="#ffffff" fill-opacity="0.0" d="M0 0L600.0 0L600.0 371.0L0 371.0L0 0Z" fill-rule="nonzero"/><path fill="#9e378d" d="M141.22112 234.13452C135.80745 222.47144 133.05 210.28455 133.05 198.02126L133.05 172.97874C133.05 185.24205 135.80745 197.42892 141.22112 209.09203Z" fill-rule="nonzero"/><path fill="#e14eca" d="M141.22112 209.09203C124.70677 173.51389 133.52246 134.5518 164.93462 104.287224C196.34676 74.02265 246.55847 56.11375 300.0 56.11375L300.0 172.97874Z" fill-rule="nonzero"/><path fill="#15151e" d="M466.95 198.02126C466.95 255.50629 407.22717 304.4548 326.11673 313.44745C245.00632 322.4401 166.59805 288.80603 141.22112 234.13452L141.22112 209.09203C166.59805 263.76355 245.00632 297.39758 326.11673 288.40494C407.22717 279.4123 466.95 230.46378 466.95 172.97874Z" fill-rule="nonzero"/><path fill="#1e1e2b" d="M300.0 56.11375C385.44812 56.11375 457.10367 101.277 466.03543 160.76303C474.9672 220.24905 418.29175 274.854 334.71085 287.28998C251.12997 299.72592 167.62604 265.9782 141.22112 209.09203L300.0 172.97874Z" fill-rule="nonzero"/><path fill="#1a1a1a" d="M19.471874 103.2218L19.471874 94.62805L20.628124 94.62805L25.14375 101.37805L25.14375 94.62805L26.2375 94.62805L26.2375 103.2218L25.065624 103.2218L20.55 96.4718L20.55 103.2218L19.471874 103.2218ZM32.596874 101.2218L33.690624 101.3468Q33.440624 102.29993 32.7375 102.83118Q32.034374 103.36243 30.95625 103.36243Q29.596874 103.36243 28.784374 102.51868Q27.9875 101.67493 27.9875 100.1593Q27.9875 98.5968 28.8 97.73743Q29.6125 96.86243 30.89375 96.86243Q32.14375 96.86243 32.925 97.70618Q33.721874 98.54993 33.721874 100.0968Q33.721874 100.19055 33.721874 100.37805L29.08125 100.37805Q29.14375 101.4093 29.659374 101.95618Q30.175 102.48743 30.95625 102.48743Q31.534374 102.48743 31.940624 102.19055Q32.3625 101.87805 32.596874 101.2218ZM29.14375 99.51868L32.6125 99.51868Q32.55 98.7218 32.221874 98.33118Q31.70625 97.7218 30.909374 97.7218Q30.175 97.7218 29.675 98.20618Q29.190624 98.69055 29.14375 99.51868ZM35.14375 103.73743L36.175 103.89368Q36.2375 104.36243 36.534374 104.58118Q36.925 104.87805 37.596874 104.87805Q38.33125 104.87805 38.721874 104.58118Q39.128124 104.2843 39.26875 103.76868Q39.3625 103.44055 39.346874 102.4093Q38.659374 103.2218 37.628124 103.2218Q36.346874 103.2218 35.64375 102.29993Q34.940624 101.36243 34.940624 100.08118Q34.940624 99.19055 35.253124 98.44055Q35.58125 97.67493 36.190624 97.26868Q36.8 96.86243 37.628124 96.86243Q38.7375 96.86243 39.45625 97.75305L39.45625 97.00305L40.425 97.00305L40.425 102.37805Q40.425 103.83118 40.128124 104.44055Q39.83125 105.04993 39.190624 105.39368Q38.55 105.75305 37.6125 105.75305Q36.503124 105.75305 35.815624 105.25305Q35.128124 104.75305 35.14375 103.73743ZM36.01875 100.00305Q36.01875 101.2218 36.503124 101.7843Q36.9875 102.3468 37.721874 102.3468Q38.45625 102.3468 38.940624 101.7843Q39.440624 101.2218 39.440624 100.0343Q39.440624 98.89368 38.925 98.31555Q38.425 97.73743 37.70625 97.73743Q37.003124 97.73743 36.503124 98.31555Q36.01875 98.87805 36.01875 100.00305ZM46.409374 102.45618Q45.815624 102.95618 45.26875 103.1593Q44.7375 103.36243 44.1125 103.36243Q43.08125 103.36243 42.534374 102.86243Q41.9875 102.36243 41.9875 101.58118Q41.9875 101.12805 42.190624 100.75305Q42.39375 100.36243 42.7375 100.14368Q43.08125 99.9093 43.503124 99.79993Q43.8 99.70618 44.440624 99.62805Q45.70625 99.48743 46.315624 99.26868Q46.315624 99.04993 46.315624 99.00305Q46.315624 98.3468 46.01875 98.08118Q45.6125 97.73743 44.815624 97.73743Q44.08125 97.73743 43.721874 98.00305Q43.3625 98.25305 43.190624 98.9093L42.159374 98.76868Q42.3 98.11243 42.628124 97.70618Q42.95625 97.29993 43.565624 97.08118Q44.175 96.86243 44.971874 96.86243Q45.76875 96.86243 46.26875 97.04993Q46.76875 97.23743 47.003124 97.51868Q47.2375 97.79993 47.33125 98.23743Q47.378124 98.50305 47.378124 99.20618L47.378124 100.61243Q47.378124 102.08118 47.440624 102.4718Q47.51875 102.86243 47.721874 103.2218L46.6125 103.2218Q46.45625 102.89368 46.409374 102.45618ZM46.315624 100.0968Q45.7375 100.33118 44.596874 100.50305Q43.940624 100.5968 43.675 100.7218Q43.409374 100.83118 43.253124 101.04993Q43.1125 101.26868 43.1125 101.54993Q43.1125 101.9718 43.425 102.25305Q43.753124 102.5343 44.3625 102.5343Q44.971874 102.5343 45.440624 102.26868Q45.925 102.00305 46.14375 101.5343Q46.315624 101.17493 46.315624 100.48743L46.315624 100.0968ZM51.64375 102.2843L51.8 103.20618Q51.346874 103.29993 51.003124 103.29993Q50.425 103.29993 50.1125 103.12805Q49.8 102.94055 49.659374 102.64368Q49.534374 102.3468 49.534374 101.39368L49.534374 97.81555L48.76875 97.81555L48.76875 97.00305L49.534374 97.00305L49.534374 95.45618L50.58125 94.83118L50.58125 97.00305L51.64375 97.00305L51.64375 97.81555L50.58125 97.81555L50.58125 101.45618Q50.58125 101.9093 50.628124 102.0343Q50.690624 102.1593 50.815624 102.23743Q50.940624 102.31555 51.175 102.31555Q51.3625 102.31555 51.64375 102.2843ZM52.346874 95.8468L52.346874 94.62805L53.409374 94.62805L53.409374 95.8468L52.346874 95.8468ZM52.346874 103.2218L52.346874 97.00305L53.409374 97.00305L53.409374 103.2218L52.346874 103.2218ZM57.065624 103.2218L54.70625 97.00305L55.815624 97.00305L57.159374 100.7218Q57.3625 101.33118 57.55 101.9718Q57.690624 101.48743 57.940624 100.79993L59.33125 97.00305L60.409374 97.00305L58.05 103.2218L57.065624 103.2218ZM65.59688 101.2218L66.69063 101.3468Q66.44063 102.29993 65.7375 102.83118Q65.03438 103.36243 63.95625 103.36243Q62.596874 103.36243 61.784374 102.51868Q60.9875 101.67493 60.9875 100.1593Q60.9875 98.5968 61.8 97.73743Q62.6125 96.86243 63.89375 96.86243Q65.14375 96.86243 65.925 97.70618Q66.72188 98.54993 66.72188 100.0968Q66.72188 100.19055 66.72188 100.37805L62.08125 100.37805Q62.14375 101.4093 62.659374 101.95618Q63.175 102.48743 63.95625 102.48743Q64.53438 102.48743 64.94063 102.19055Q65.3625 101.87805 65.59688 101.2218ZM62.14375 99.51868L65.6125 99.51868Q65.55 98.7218 65.22188 98.33118Q64.70625 97.7218 63.909374 97.7218Q63.175 97.7218 62.675 98.20618Q62.190624 98.69055 62.14375 99.51868Z" fill-rule="nonzero"/><path fill="#9e9e9e" d="M19.05 117.95618L20.1125 117.81555Q20.284374 118.70618 20.721874 119.11243Q21.159374 119.50305 21.784374 119.50305Q22.534374 119.50305 23.05 118.98743Q23.565624 118.4718 23.565624 117.70618Q23.565624 116.98743 23.08125 116.51868Q22.6125 116.0343 21.878124 116.0343Q21.58125 116.0343 21.128124 116.1593L21.253124 115.2218Q21.3625 115.23743 21.425 115.23743Q22.096874 115.23743 22.628124 114.89368Q23.175 114.5343 23.175 113.79993Q23.175 113.2218 22.784374 112.8468Q22.39375 112.45618 21.76875 112.45618Q21.159374 112.45618 20.7375 112.8468Q20.33125 113.23743 20.221874 114.00305L19.159374 113.81555Q19.346874 112.76868 20.034374 112.19055Q20.721874 111.5968 21.7375 111.5968Q22.440624 111.5968 23.034374 111.9093Q23.628124 112.20618 23.940624 112.7218Q24.253124 113.23743 24.253124 113.83118Q24.253124 114.37805 23.95625 114.8468Q23.659374 115.29993 23.08125 115.56555Q23.83125 115.73743 24.253124 116.29993Q24.675 116.8468 24.675 117.69055Q24.675 118.81555 23.846874 119.5968Q23.034374 120.37805 21.784374 120.37805Q20.659374 120.37805 19.909374 119.70618Q19.159374 119.01868 19.05 117.95618ZM26.05 115.98743Q26.05 114.45618 26.3625 113.5343Q26.675 112.5968 27.284374 112.0968Q27.909374 111.5968 28.846874 111.5968Q29.534374 111.5968 30.05 111.87805Q30.58125 112.1593 30.925 112.69055Q31.26875 113.20618 31.45625 113.95618Q31.64375 114.70618 31.64375 115.98743Q31.64375 117.50305 31.33125 118.42493Q31.034374 119.3468 30.409374 119.86243Q29.8 120.36243 28.846874 120.36243Q27.6125 120.36243 26.89375 119.4718Q26.05 118.4093 26.05 115.98743ZM27.128124 115.98743Q27.128124 118.0968 27.628124 118.79993Q28.128124 119.50305 28.846874 119.50305Q29.58125 119.50305 30.065624 118.79993Q30.565624 118.0968 30.565624 115.98743Q30.565624 113.86243 30.065624 113.17493Q29.58125 112.4718 28.83125 112.4718Q28.1125 112.4718 27.675 113.08118Q27.128124 113.86243 27.128124 115.98743ZM33.64375 120.2218L33.64375 119.01868L34.846874 119.01868L34.846874 120.2218L33.64375 120.2218ZM36.05 115.98743Q36.05 114.45618 36.3625 113.5343Q36.675 112.5968 37.284374 112.0968Q37.909374 111.5968 38.846874 111.5968Q39.534374 111.5968 40.05 111.87805Q40.58125 112.1593 40.925 112.69055Q41.26875 113.20618 41.45625 113.95618Q41.64375 114.70618 41.64375 115.98743Q41.64375 117.50305 41.33125 118.42493Q41.034374 119.3468 40.409374 119.86243Q39.8 120.36243 38.846874 120.36243Q37.6125 120.36243 36.89375 119.4718Q36.05 118.4093 36.05 115.98743ZM37.128124 115.98743Q37.128124 118.0968 37.628124 118.79993Q38.128124 119.50305 38.846874 119.50305Q39.58125 119.50305 40.065624 118.79993Q40.565624 118.0968 40.565624 115.98743Q40.565624 113.86243 40.065624 113.17493Q39.58125 112.4718 38.83125 112.4718Q38.1125 112.4718 37.675 113.08118Q37.128124 113.86243 37.128124 115.98743ZM43.253124 113.69055Q43.253124 112.76868 43.70625 112.12805Q44.175 111.48743 45.05 111.48743Q45.8625 111.48743 46.39375 112.06555Q46.925 112.64368 46.925 113.75305Q46.925 114.8468 46.378124 115.44055Q45.846874 116.01868 45.065624 116.01868Q44.284374 116.01868 43.76875 115.44055Q43.253124 114.86243 43.253124 113.69055ZM45.08125 112.20618Q44.690624 112.20618 44.425 112.54993Q44.175 112.89368 44.175 113.79993Q44.175 114.62805 44.425 114.9718Q44.690624 115.29993 45.08125 115.29993Q45.4875 115.29993 45.7375 114.95618Q46.003124 114.61243 46.003124 113.7218Q46.003124 112.87805 45.7375 112.54993Q45.471874 112.20618 45.08125 112.20618ZM45.08125 120.5343L49.784374 111.48743L50.64375 111.48743L45.95625 120.5343L45.08125 120.5343ZM48.8 118.20618Q48.8 117.2843 49.253124 116.64368Q49.721874 116.00305 50.6125 116.00305Q51.425 116.00305 51.95625 116.58118Q52.4875 117.14368 52.4875 118.26868Q52.4875 119.36243 51.940624 119.95618Q51.409374 120.5343 50.6125 120.5343Q49.846874 120.5343 49.315624 119.95618Q48.8 119.37805 48.8 118.20618ZM50.64375 116.7218Q50.2375 116.7218 49.971874 117.06555Q49.721874 117.4093 49.721874 118.31555Q49.721874 119.12805 49.9875 119.4718Q50.253124 119.81555 50.64375 119.81555Q51.034374 119.81555 51.3 119.4718Q51.565624 119.12805 51.565624 118.2218Q51.565624 117.39368 51.3 117.06555Q51.034374 116.7218 50.64375 116.7218Z" fill-rule="nonzero"/><path stroke="#757575" stroke-width="1.0" stroke-linecap="butt" d="M18.55 107.7218L127.05 107.7218L171.68788 107.7218" fill-rule="nonzero"/><path fill="#9e9e9e" d="M173.68788 107.7218C173.68788 106.61723 172.79245 105.7218 171.68788 105.7218C170.58331 105.7218 169.68788 106.61723 169.68788 107.7218C169.68788 108.82637 170.58331 109.7218 171.68788 109.7218C172.79245 109.7218 173.68788 108.82637 173.68788 107.7218" fill-rule="nonzero"/><path fill="#1a1a1a" d="M539.3719 233.7357L539.3719 225.14195L542.6219 225.14195Q543.46564 225.14195 543.91876 225.22008Q544.5594 225.32945 544.98126 225.62633Q545.41876 225.9232 545.66876 226.45445Q545.9344 226.9857 545.9344 227.62633Q545.9344 228.72008 545.23126 229.4857Q544.54376 230.2357 542.71564 230.2357L540.5125 230.2357L540.5125 233.7357L539.3719 233.7357ZM540.5125 229.2357L542.73126 229.2357Q543.84064 229.2357 544.29376 228.82945Q544.7625 228.40758 544.7625 227.65758Q544.7625 227.12633 544.48126 226.75133Q544.21564 226.3607 543.77814 226.2357Q543.48126 226.15758 542.71564 226.15758L540.5125 226.15758L540.5125 229.2357ZM546.85626 230.62633Q546.85626 228.89195 547.8094 228.06383Q548.60626 227.37633 549.7625 227.37633Q551.04376 227.37633 551.85626 228.22008Q552.6844 229.0482 552.6844 230.53258Q552.6844 231.7357 552.325 232.4232Q551.96564 233.1107 551.2625 233.50133Q550.575 233.87633 549.7625 233.87633Q548.46564 233.87633 547.65314 233.0482Q546.85626 232.20445 546.85626 230.62633ZM547.9344 230.62633Q547.9344 231.81383 548.45 232.40758Q548.98126 233.00133 549.7625 233.00133Q550.5594 233.00133 551.075 232.40758Q551.59064 231.81383 551.59064 230.59508Q551.59064 229.43883 551.0594 228.84508Q550.54376 228.25133 549.7625 228.25133Q548.98126 228.25133 548.45 228.84508Q547.9344 229.4232 547.9344 230.62633ZM553.825 231.87633L554.85626 231.72008Q554.95 232.34508 555.34064 232.6732Q555.7469 233.00133 556.48126 233.00133Q557.2 233.00133 557.54376 232.72008Q557.90314 232.4232 557.90314 232.01695Q557.90314 231.65758 557.59064 231.45445Q557.3719 231.31383 556.5125 231.09508Q555.35626 230.7982 554.90314 230.59508Q554.46564 230.37633 554.23126 230.00133Q553.9969 229.62633 553.9969 229.15758Q553.9969 228.75133 554.1844 228.39195Q554.3719 228.03258 554.7 227.7982Q554.95 227.62633 555.3719 227.50133Q555.79376 227.37633 556.29376 227.37633Q557.0125 227.37633 557.5594 227.59508Q558.1219 227.7982 558.3875 228.15758Q558.65314 228.51695 558.7469 229.1107L557.71564 229.25133Q557.65314 228.78258 557.3094 228.51695Q556.98126 228.2357 556.35626 228.2357Q555.6375 228.2357 555.325 228.4857Q555.0125 228.72008 555.0125 229.0482Q555.0125 229.25133 555.1375 229.40758Q555.27814 229.57945 555.54376 229.68883Q555.7 229.75133 556.48126 229.95445Q557.60626 230.26695 558.04376 230.45445Q558.48126 230.64195 558.73126 231.00133Q558.98126 231.3607 558.98126 231.90758Q558.98126 232.43883 558.66876 232.90758Q558.3719 233.3607 557.79376 233.62633Q557.21564 233.87633 556.48126 233.87633Q555.2625 233.87633 554.6219 233.37633Q553.9969 232.8607 553.825 231.87633ZM560.2469 226.3607L560.2469 225.14195L561.3094 225.14195L561.3094 226.3607L560.2469 226.3607ZM560.2469 233.7357L560.2469 227.51695L561.3094 227.51695L561.3094 233.7357L560.2469 233.7357ZM565.54376 232.7982L565.7 233.72008Q565.2469 233.81383 564.90314 233.81383Q564.325 233.81383 564.0125 233.64195Q563.7 233.45445 563.5594 233.15758Q563.4344 232.8607 563.4344 231.90758L563.4344 228.32945L562.66876 228.32945L562.66876 227.51695L563.4344 227.51695L563.4344 225.97008L564.48126 225.34508L564.48126 227.51695L565.54376 227.51695L565.54376 228.32945L564.48126 228.32945L564.48126 231.97008Q564.48126 232.4232 564.52814 232.5482Q564.59064 232.6732 564.71564 232.75133Q564.84064 232.82945 565.075 232.82945Q565.2625 232.82945 565.54376 232.7982ZM566.2469 226.3607L566.2469 225.14195L567.3094 225.14195L567.3094 226.3607L566.2469 226.3607ZM566.2469 233.7357L566.2469 227.51695L567.3094 227.51695L567.3094 233.7357L566.2469 233.7357ZM570.96564 233.7357L568.60626 227.51695L569.71564 227.51695L571.0594 231.2357Q571.2625 231.84508 571.45 232.4857Q571.59064 232.00133 571.84064 231.31383L573.23126 227.51695L574.3094 227.51695L571.95 233.7357L570.96564 233.7357ZM579.4969 231.7357L580.59064 231.8607Q580.34064 232.81383 579.6375 233.34508Q578.9344 233.87633 577.85626 233.87633Q576.4969 233.87633 575.6844 233.03258Q574.8875 232.18883 574.8875 230.6732Q574.8875 229.1107 575.7 228.25133Q576.5125 227.37633 577.79376 227.37633Q579.04376 227.37633 579.825 228.22008Q580.6219 229.06383 580.6219 230.6107Q580.6219 230.70445 580.6219 230.89195L575.98126 230.89195Q576.04376 231.9232 576.5594 232.47008Q577.075 233.00133 577.85626 233.00133Q578.4344 233.00133 578.84064 232.70445Q579.2625 232.39195 579.4969 231.7357ZM576.04376 230.03258L579.5125 230.03258Q579.45 229.2357 579.1219 228.84508Q578.60626 228.2357 577.8094 228.2357Q577.075 228.2357 576.575 228.72008Q576.09064 229.20445 576.04376 230.03258Z" fill-rule="nonzero"/><path fill="#9e9e9e" d="M547.0125 243.26695L547.0125 242.25133L552.575 242.25133L552.575 243.07945Q551.7625 243.95445 550.95 245.40758Q550.15314 246.84508 549.71564 248.37633Q549.3875 249.45445 549.3094 250.7357L548.21564 250.7357Q548.23126 249.72008 548.60626 248.28258Q548.9969 246.84508 549.7 245.51695Q550.41876 244.18883 551.23126 243.26695L547.0125 243.26695ZM553.95 246.50133Q553.95 244.97008 554.2625 244.0482Q554.575 243.1107 555.1844 242.6107Q555.8094 242.1107 556.7469 242.1107Q557.4344 242.1107 557.95 242.39195Q558.48126 242.6732 558.825 243.20445Q559.16876 243.72008 559.35626 244.47008Q559.54376 245.22008 559.54376 246.50133Q559.54376 248.01695 559.23126 248.93883Q558.9344 249.8607 558.3094 250.37633Q557.7 250.87633 556.7469 250.87633Q555.5125 250.87633 554.79376 249.9857Q553.95 248.9232 553.95 246.50133ZM555.02814 246.50133Q555.02814 248.6107 555.52814 249.31383Q556.02814 250.01695 556.7469 250.01695Q557.48126 250.01695 557.96564 249.31383Q558.46564 248.6107 558.46564 246.50133Q558.46564 244.37633 557.96564 243.68883Q557.48126 242.9857 556.73126 242.9857Q556.0125 242.9857 555.575 243.59508Q555.02814 244.37633 555.02814 246.50133ZM561.54376 250.7357L561.54376 249.53258L562.7469 249.53258L562.7469 250.7357L561.54376 250.7357ZM563.95 246.50133Q563.95 244.97008 564.2625 244.0482Q564.575 243.1107 565.1844 242.6107Q565.8094 242.1107 566.7469 242.1107Q567.4344 242.1107 567.95 242.39195Q568.48126 242.6732 568.825 243.20445Q569.16876 243.72008 569.35626 244.47008Q569.54376 245.22008 569.54376 246.50133Q569.54376 248.01695 569.23126 248.93883Q568.9344 249.8607 568.3094 250.37633Q567.7 250.87633 566.7469 250.87633Q565.5125 250.87633 564.79376 249.9857Q563.95 248.9232 563.95 246.50133ZM565.02814 246.50133Q565.02814 248.6107 565.52814 249.31383Q566.02814 250.01695 566.7469 250.01695Q567.48126 250.01695 567.96564 249.31383Q568.46564 248.6107 568.46564 246.50133Q568.46564 244.37633 567.96564 243.68883Q567.48126 242.9857 566.73126 242.9857Q566.0125 242.9857 565.575 243.59508Q565.02814 244.37633 565.02814 246.50133ZM571.15314 244.20445Q571.15314 243.28258 571.60626 242.64195Q572.075 242.00133 572.95 242.00133Q573.7625 242.00133 574.29376 242.57945Q574.825 243.15758 574.825 244.26695Q574.825 245.3607 574.27814 245.95445Q573.7469 246.53258 572.96564 246.53258Q572.1844 246.53258 571.66876 245.95445Q571.15314 245.37633 571.15314 244.20445ZM572.98126 242.72008Q572.59064 242.72008 572.325 243.06383Q572.075 243.40758 572.075 244.31383Q572.075 245.14195 572.325 245.4857Q572.59064 245.81383 572.98126 245.81383Q573.3875 245.81383 573.6375 245.47008Q573.90314 245.12633 573.90314 244.2357Q573.90314 243.39195 573.6375 243.06383Q573.3719 242.72008 572.98126 242.72008ZM572.98126 251.0482L577.6844 242.00133L578.54376 242.00133L573.85626 251.0482L572.98126 251.0482ZM576.7 248.72008Q576.7 247.7982 577.15314 247.15758Q577.6219 246.51695 578.5125 246.51695Q579.325 246.51695 579.85626 247.09508Q580.3875 247.65758 580.3875 248.78258Q580.3875 249.87633 579.84064 250.47008Q579.3094 251.0482 578.5125 251.0482Q577.7469 251.0482 577.21564 250.47008Q576.7 249.89195 576.7 248.72008ZM578.54376 247.2357Q578.1375 247.2357 577.8719 247.57945Q577.6219 247.9232 577.6219 248.82945Q577.6219 249.64195 577.8875 249.9857Q578.15314 250.32945 578.54376 250.32945Q578.9344 250.32945 579.2 249.9857Q579.46564 249.64195 579.46564 248.7357Q579.46564 247.90758 579.2 247.57945Q578.9344 247.2357 578.54376 247.2357Z" fill-rule="nonzero"/><path stroke="#757575" stroke-width="1.0" stroke-linecap="butt" d="M581.45 238.2357L472.95 238.2357L428.3121 238.2357" fill-rule="nonzero"/><path fill="#9e9e9e" d="M430.3121 238.2357C430.3121 237.13113 429.4167 236.2357 428.3121 236.2357C427.20755 236.2357 426.3121 237.13113 426.3121 238.2357C426.3121 239.34027 427.20755 240.2357 428.3121 240.2357C429.4167 240.2357 430.3121 239.34027 430.3121 238.2357" fill-rule="nonzero"/></svg>