<?xml version="1.0" encoding="UTF-8" standalone="no"?><!-- Generator: Gravit.io --><svg xmlns="http://www.w3.org/2000/svg" xmlns:xlink="http://www.w3.org/1999/xlink" style="isolation:isolate" viewBox="0 0 800 600" width="800pt" height="600pt"><defs><clipPath id="_clipPath_TOf94aZ7mVNbdMOmgD8ULVhMXVozBtiU"><rect width="800" height="600"/></clipPath></defs><g clip-path="url(#_clipPath_TOf94aZ7mVNbdMOmgD8ULVhMXVozBtiU)"><rect width="800" height="600" style="fill:rgb(30,30,46)" fill-opacity="0"/><radialGradient id="_rgradient_77" fx="0.500004839" fy="0.499989596" cx="0.500004839" cy="0.499989596" r="0.5000016939999999" gradientTransform="matrix(413.29,0,0,383.69,173.6,138.97)" gradientUnits="userSpaceOnUse"><stop offset="0%" stop-opacity="0.34" style="stop-color:rgb(255,255,255)"/><stop offset="100%" stop-opacity="0" style="stop-color:rgb(62,130,191)"/></radialGradient><rect x="173.6" y="138.97" width="413.29" height="383.69" transform="matrix(1,0,0,1,0,0)" fill="url(#_rgradient_77)"/><g><linearGradient id="_lgradient_46" x1="0" y1="0.5" x2="0.7506976439757976" y2="1.1606459318948286" gradientTransform="matrix(68.57,0,0,52.45,495.47,336.44)" gradientUnits="userSpaceOnUse"><stop offset="23.240444267712746%" stop-opacity="1" style="stop-color:rgb(39,0,54)"/><stop offset="54.536899281312756%" stop-opacity="1" style="stop-color:rgb(79,0,139)"/><stop offset="75.96358276771275%" stop-opacity="1" style="stop-color:rgb(76,36,177)"/></linearGradient><path d=" M 545.01 358.78 L 495.47 387.65 L 496.19 388.89 L 545.73 360.02 C 546.44 359.6 546.88 358.86 546.89 358.03 C 546.9 357.2 546.49 356.45 545.78 356.01 L 539.73 352.26 C 539.45 352.09 539.3 351.8 539.3 351.47 C 539.31 351.15 539.48 350.86 539.76 350.71 L 558.34 340.26 C 558.87 340.39 559.45 340.48 560.08 340.48 C 562.27 340.48 564.04 339.58 564.04 338.46 C 564.04 337.35 562.27 336.44 560.08 336.44 C 557.89 336.44 556.12 337.34 556.12 338.46 C 556.12 338.85 556.35 339.21 556.72 339.52 L 539.05 349.45 C 538.32 349.86 537.88 350.6 537.86 351.44 C 537.84 352.27 538.25 353.04 538.97 353.48 L 545.02 357.23 C 545.3 357.4 545.45 357.68 545.45 358.01 C 545.45 358.33 545.29 358.61 545.01 358.78 Z " fill="url(#_lgradient_46)"/><linearGradient id="_lgradient_47" x1="0" y1="0.5" x2="0.9313986365770106" y2="0.8640007964036421" gradientTransform="matrix(68.08,0,0,39.73,501.19,354.16)" gradientUnits="userSpaceOnUse"><stop offset="27.675778981957887%" stop-opacity="1" style="stop-color:rgb(39,0,54)"/><stop offset="54.87790061171785%" stop-opacity="1" style="stop-color:rgb(79,0,139)"/><stop offset="73.50145558195781%" stop-opacity="1" style="stop-color:rgb(76,36,177)"/></linearGradient><path d=" M 565.31 358.2 C 567.49 358.2 569.27 357.3 569.27 356.18 C 569.27 355.07 567.5 354.16 565.31 354.16 C 563.12 354.16 561.35 355.06 561.35 356.18 C 561.35 356.58 561.59 356.96 561.99 357.28 L 501.19 392.65 L 501.91 393.89 L 563.61 358 C 564.13 358.12 564.7 358.2 565.31 358.2 Z " fill="url(#_lgradient_47)"/><linearGradient id="_lgradient_48" x1="0" y1="0.5" x2="1" y2="0.5" gradientTransform="matrix(116.33,0,0,67.32,455.94,295.59)" gradientUnits="userSpaceOnUse"><stop offset="0%" stop-opacity="1" style="stop-color:rgb(178,8,171)"/><stop offset="98.68723719999994%" stop-opacity="1" style="stop-color:rgb(78,13,152)"/></linearGradient><path d=" M 564.99 298.71 L 455.94 361.67 L 456.66 362.91 L 566.61 299.43 C 567.13 299.56 567.7 299.63 568.31 299.63 C 570.49 299.63 572.27 298.73 572.27 297.61 C 572.27 296.5 570.5 295.59 568.31 295.59 C 566.12 295.59 564.35 296.49 564.35 297.61 C 564.35 298.03 564.59 298.4 564.99 298.71 Z " fill="url(#_lgradient_48)"/><linearGradient id="_lgradient_49" x1="0" y1="0.5" x2="0.5755236591808387" y2="1.3177851293115435" gradientTransform="matrix(57.29,0,0,51.41,430.33,297.61)" gradientUnits="userSpaceOnUse"><stop offset="12.039633013349924%" stop-opacity="1" style="stop-color:rgb(39,0,54)"/><stop offset="55.11311926886994%" stop-opacity="1" style="stop-color:rgb(79,0,139)"/><stop offset="84.60278371334995%" stop-opacity="1" style="stop-color:rgb(76,36,177)"/></linearGradient><path d=" M 474.15 321.81 L 430.33 347.79 L 431.06 349.02 L 474.88 323.04 C 475.99 322.38 476.65 321.21 476.64 319.92 C 476.63 318.63 475.96 317.47 474.84 316.82 L 468.94 313.42 C 468.27 313.04 467.87 312.35 467.86 311.58 C 467.85 310.81 468.23 310.11 468.88 309.71 L 482.06 301.48 C 482.55 301.59 483.09 301.65 483.66 301.65 C 485.85 301.65 487.62 300.75 487.62 299.63 C 487.62 298.52 485.85 297.61 483.66 297.61 C 481.48 297.61 479.7 298.51 479.7 299.63 C 479.7 300.06 479.98 300.46 480.43 300.79 L 468.12 308.48 C 467.04 309.16 466.4 310.32 466.43 311.6 C 466.45 312.88 467.13 314.02 468.23 314.66 L 474.13 318.06 C 474.8 318.45 475.21 319.15 475.21 319.92 C 475.21 320.71 474.81 321.41 474.15 321.81 Z " fill="url(#_lgradient_49)"/><linearGradient id="_lgradient_50" x1="0" y1="0.5" x2="0.9891360551722901" y2="0.647002939964479" gradientTransform="matrix(109.13,0,0,46.14,526.37,361.34)" gradientUnits="userSpaceOnUse"><stop offset="28.016708710828926%" stop-opacity="1" style="stop-color:rgb(39,0,54)"/><stop offset="55.21883034058891%" stop-opacity="1" style="stop-color:rgb(79,0,139)"/><stop offset="73.84238531082889%" stop-opacity="1" style="stop-color:rgb(76,36,177)"/></linearGradient><path d=" M 527.1 407.48 L 598.24 366.41 C 600.37 365.18 603.04 365.3 605.05 366.72 L 611.56 371.32 C 614.13 373.14 617.51 373.23 620.17 371.55 L 630.16 365.25 C 630.59 365.33 631.05 365.38 631.54 365.38 C 633.73 365.38 635.5 364.48 635.5 363.36 C 635.5 362.24 633.73 361.34 631.54 361.34 C 629.36 361.34 627.58 362.24 627.58 363.36 C 627.58 363.84 627.92 364.27 628.46 364.62 L 619.4 370.34 C 617.23 371.71 614.48 371.63 612.38 370.15 L 605.87 365.55 C 603.41 363.81 600.13 363.66 597.51 365.16 L 526.37 406.23 L 527.1 407.48 Z " fill="url(#_lgradient_50)"/><linearGradient id="_lgradient_51" x1="0" y1="0.5" x2="1" y2="0.5" gradientTransform="matrix(57.3,0,0,51.42,308.8,297.74)" gradientUnits="userSpaceOnUse"><stop offset="0.3449366560000118%" stop-opacity="1" style="stop-color:rgb(63,73,156)"/><stop offset="99.39764690000004%" stop-opacity="1" style="stop-color:rgb(198,25,187)"/></linearGradient><path d=" M 321.22 320.05 C 321.22 319.27 321.63 318.58 322.3 318.19 L 328.2 314.79 C 329.3 314.15 329.98 313.01 330 311.73 C 330.02 310.45 329.39 309.29 328.3 308.61 L 315.99 300.92 C 316.45 300.59 316.72 300.19 316.72 299.76 C 316.72 298.64 314.95 297.74 312.76 297.74 C 310.57 297.74 308.8 298.64 308.8 299.76 C 308.8 300.87 310.57 301.78 312.76 301.78 C 313.33 301.78 313.87 301.72 314.36 301.61 L 327.54 309.84 C 328.19 310.25 328.57 310.95 328.56 311.71 C 328.55 312.48 328.14 313.16 327.48 313.55 L 321.58 316.95 C 320.46 317.6 319.79 318.76 319.78 320.05 C 319.77 321.34 320.43 322.51 321.55 323.17 L 365.37 349.16 L 366.1 347.92 L 322.28 321.93 C 321.61 321.53 321.22 320.82 321.22 320.05 Z " fill="url(#_lgradient_51)"/></g><g><g><linearGradient id="_lgradient_52" x1="0" y1="0.5" x2="1" y2="0.5" gradientTransform="matrix(531.98,0,0,205.103,86.96,131.107)" gradientUnits="userSpaceOnUse"><stop offset="0%" stop-opacity="1" style="stop-color:rgb(161,186,255)"/><stop offset="43.320162038640945%" stop-opacity="1" style="stop-color:rgb(255,255,255)"/></linearGradient><path d=" M 618.94 180.85 C 618.94 180.85 539.25 131.86 373.21 131.11 C 317.87 130.86 218.43 145.63 159.09 174.43 C 89.97 207.99 86.97 251.06 86.97 251.06 L 86.96 256.79 C 90.7 268.2 101.28 295.44 120.9 309.97 C 146.14 328.67 161.1 336.21 161.1 336.21 L 169.5 331.47 L 610.32 183.79 L 618.94 180.85 Z " fill="url(#_lgradient_52)"/><linearGradient id="_lgradient_53" x1="0" y1="0.5" x2="1" y2="0.5" gradientTransform="matrix(519.65,0,0,326.926,90.68,138.104)" gradientUnits="userSpaceOnUse"><stop offset="0.8695652173913043%" stop-opacity="1" style="stop-color:rgb(41,39,49)"/><stop offset="18.695652173913043%" stop-opacity="1" style="stop-color:rgb(16,21,68)"/><stop offset="41.30434782608695%" stop-opacity="1" style="stop-color:rgb(9,17,47)"/><stop offset="64.34782608695652%" stop-opacity="1" style="stop-color:rgb(30,54,91)"/><stop offset="90%" stop-opacity="1" style="stop-color:rgb(8,59,104)"/><stop offset="99.1304347826087%" stop-opacity="1" style="stop-color:rgb(37,81,115)"/></linearGradient><path d=" M 90.68 465.03 C 90.68 465.03 121.23 373.87 339.61 356.34 C 490.4 344.23 610.33 397.16 610.33 397.16 L 610.33 183.79 C 610.33 183.79 540.66 138.86 374.62 138.107 C 319.28 137.86 219.84 152.63 160.5 181.43 C 91.38 215 91.18 260.18 91.18 260.18 L 90.68 465.03 Z " fill="url(#_lgradient_53)"/><g style="opacity:0.3;"><g opacity="0.56"><path d=" M 315.61 179.02 L 315.61 189.85 L 204.81 213.89 L 204.57 202.76 L 315.61 179.02 Z " fill="rgb(255,255,255)"/></g><g opacity="0.56"><path d=" M 315.61 195.7 L 315.61 206.53 L 204.81 230.56 L 204.57 219.45 L 315.61 195.7 Z " fill="rgb(255,255,255)"/></g><g opacity="0.56"><path d=" M 315.61 212.37 L 315.61 223.2 L 204.81 247.24 L 204.57 236.12 L 315.61 212.37 Z " fill="rgb(255,255,255)"/></g><g opacity="0.56"><path d=" M 315.61 229.05 L 315.61 239.88 L 204.81 263.91 L 204.57 252.79 L 315.61 229.05 Z " fill="rgb(255,255,255)"/></g><g opacity="0.56"><path d=" M 315.61 245.73 L 315.61 256.56 L 265.94 267.75 L 265.7 256.63 L 315.61 245.73 Z " fill="rgb(255,255,255)"/></g><g opacity="0.56"><path d=" M 315.61 262.4 L 315.61 273.23 L 204.81 297.26 L 204.57 286.15 L 315.61 262.4 Z " fill="rgb(255,255,255)"/></g><g opacity="0.56"><path d=" M 315.61 279.08 L 315.61 289.91 L 204.81 313.94 L 204.57 302.82 L 315.61 279.08 Z " fill="rgb(255,255,255)"/></g><g opacity="0.56"><path d=" M 315.61 295.75 L 315.61 306.58 L 204.81 330.62 L 204.57 319.5 L 315.61 295.75 Z " fill="rgb(255,255,255)"/></g><g opacity="0.56"><path d=" M 315.61 312.43 L 315.61 323.26 L 204.81 347.29 L 204.57 336.18 L 315.61 312.43 Z " fill="rgb(255,255,255)"/></g></g><g style="opacity:0.7;"><g opacity="0.7"><path d=" M 519.91 329.54 L 560.97 305.83 L 602.03 329.54 L 560.4 352.91 L 519.91 329.54 Z " fill="rgb(43,115,181)"/></g><g opacity="0.7"><path d=" M 519.91 315.43 L 560.97 291.73 L 602.03 315.43 L 560.4 338.81 L 519.91 315.43 Z " fill="rgb(86,171,221)"/></g><g opacity="0.7"><path d=" M 519.91 297.73 L 560.97 274.03 L 602.03 297.73 L 560.4 321.11 L 519.91 297.73 Z " fill="rgb(26,128,172)"/></g><g opacity="0.7"><path d=" M 519.91 282.45 L 560.97 258.75 L 602.03 282.45 L 560.4 305.83 L 519.91 282.45 Z " fill="rgb(32,127,156)"/></g><g opacity="0.7"><path d=" M 519.91 267.18 L 560.97 243.47 L 602.03 267.18 L 560.4 290.55 L 519.91 267.18 Z " fill="rgb(57,172,174)"/></g><g opacity="0.7"><path d=" M 519.91 252.75 L 560.97 229.04 L 602.03 252.75 L 560.4 276.12 L 519.91 252.75 Z " fill="rgb(0,221,210)"/></g><g opacity="0.7"><path d=" M 519.91 238.32 L 560.97 214.62 L 602.03 238.32 L 560.4 261.7 L 519.91 238.32 Z " fill="rgb(0,204,189)"/></g><g opacity="0.7"><path d=" M 519.91 223.9 L 560.97 200.19 L 602.03 223.9 L 560.4 247.27 L 519.91 223.9 Z " fill="rgb(0,221,210)"/></g></g><g style="opacity:0.6;"><g opacity="0.56"><path d=" M 445.02 154.66 L 445.02 161.33 L 513.24 173.61 L 513.39 166.76 L 445.02 154.66 Z " fill="rgb(255,255,255)"/></g><g opacity="0.56"><path d=" M 445.02 164.93 L 445.02 171.59 L 513.24 183.88 L 513.39 177.03 L 445.02 164.93 Z " fill="rgb(255,255,255)"/></g><g opacity="0.56"><path d=" M 445.02 175.19 L 445.02 181.86 L 513.24 194.14 L 513.39 187.29 L 445.02 175.19 Z " fill="rgb(255,255,255)"/></g><g opacity="0.56"><path d=" M 445.02 185.46 L 445.02 192.13 L 513.24 204.41 L 513.39 197.56 L 445.02 185.46 Z " fill="rgb(255,255,255)"/></g><g opacity="0.56"><path d=" M 445.02 195.73 L 445.02 202.39 L 475.61 208.16 L 475.75 201.31 L 445.02 195.73 Z " fill="rgb(255,255,255)"/></g><g opacity="0.56"><path d=" M 445.02 205.99 L 445.02 212.66 L 513.24 224.95 L 513.39 218.1 L 445.02 205.99 Z " fill="rgb(255,255,255)"/></g><g opacity="0.56"><path d=" M 445.02 216.26 L 445.02 222.93 L 513.24 235.21 L 513.39 228.36 L 445.02 216.26 Z " fill="rgb(255,255,255)"/></g><g opacity="0.56"><path d=" M 445.02 226.53 L 445.02 233.19 L 513.24 245.48 L 513.39 238.63 L 445.02 226.53 Z " fill="rgb(255,255,255)"/></g><g opacity="0.56"><path d=" M 445.02 236.79 L 445.02 243.46 L 513.24 255.75 L 513.39 248.9 L 445.02 236.79 Z " fill="rgb(255,255,255)"/></g></g><g style="opacity:0.6;"><g opacity="0.56"><path d=" M 445.02 252.27 L 445.02 258.94 L 513.24 271.23 L 513.39 264.38 L 445.02 252.27 Z " fill="rgb(255,255,255)"/></g><g opacity="0.56"><path d=" M 445.02 262.54 L 445.02 269.21 L 513.24 281.49 L 513.39 274.64 L 445.02 262.54 Z " fill="rgb(255,255,255)"/></g><g opacity="0.56"><path d=" M 445.02 272.81 L 445.02 279.47 L 513.24 291.76 L 513.39 284.91 L 445.02 272.81 Z " fill="rgb(255,255,255)"/></g><g opacity="0.56"><path d=" M 445.02 283.07 L 445.02 289.74 L 513.24 302.03 L 513.39 295.18 L 445.02 283.07 Z " fill="rgb(255,255,255)"/></g><g opacity="0.56"><path d=" M 445.02 293.34 L 445.02 300.01 L 475.61 305.77 L 475.75 298.92 L 445.02 293.34 Z " fill="rgb(255,255,255)"/></g><g opacity="0.56"><path d=" M 445.02 303.61 L 445.02 310.27 L 513.24 322.56 L 513.39 315.71 L 445.02 303.61 Z " fill="rgb(255,255,255)"/></g><g opacity="0.56"><path d=" M 445.02 313.87 L 445.02 320.54 L 513.24 332.83 L 513.39 325.98 L 445.02 313.87 Z " fill="rgb(255,255,255)"/></g><g opacity="0.56"><path d=" M 445.02 324.14 L 445.02 330.81 L 513.24 343.09 L 513.39 336.24 L 445.02 324.14 Z " fill="rgb(255,255,255)"/></g><g opacity="0.56"><path d=" M 445.02 334.41 L 445.02 341.07 L 513.24 353.36 L 513.39 346.51 L 445.02 334.41 Z " fill="rgb(255,255,255)"/></g></g><ellipse vector-effect="non-scaling-stroke" cx="133.07999999999998" cy="255.17" rx="22.689999999999998" ry="38.099999999999994" fill="rgb(254,253,255)" fill-opacity="0.17"/><ellipse vector-effect="non-scaling-stroke" cx="136.51" cy="342.78999999999996" rx="22.689999999999998" ry="38.10000000000002" fill="rgb(255,255,255)" fill-opacity="0.2"/><g><g><path d=" M 353.4 292.7 L 352.63 328.8 L 367.92 328 L 368.7 291.93 L 353.4 292.7 Z " fill="rgb(0,221,210)"/><path d=" M 339.16 275.46 L 353.4 292.7 L 352.63 328.8 L 337.75 310.33 L 339.16 275.46 Z " fill="rgb(0,204,189)"/><path d=" M 339.16 275.46 L 354.19 274.57 L 368.7 291.93 L 353.4 292.7 L 339.16 275.46 Z " fill="rgb(0,255,236)"/></g><g><path d=" M 385.44 259.76 L 383.99 327 L 399.28 326.21 L 400.73 258.99 L 385.44 259.76 Z " fill="rgb(149,26,172)"/><path d=" M 371.19 242.52 L 385.44 259.76 L 383.99 327 L 369.11 308.54 L 371.19 242.52 Z " fill="rgb(116,26,172)"/><path d=" M 371.19 242.52 L 386.23 241.63 L 400.73 258.99 L 385.44 259.76 L 371.19 242.52 Z " fill="rgb(169,26,172)"/></g><g><path d=" M 417.47 215.27 L 415.07 327.08 L 430.37 326.29 L 432.77 214.5 L 417.47 215.27 Z " fill="rgb(86,171,221)"/><path d=" M 403.23 198.03 L 417.47 215.27 L 415.07 327.08 L 400.19 308.61 L 403.23 198.03 Z " fill="rgb(43,115,181)"/><path d=" M 403.23 198.03 L 418.26 197.14 L 432.77 214.5 L 417.47 215.27 L 403.23 198.03 Z " fill="rgb(0,155,221)"/></g></g><linearGradient id="_lgradient_54" x1="0" y1="0.5" x2="1" y2="0.5" gradientTransform="matrix(75.63,0,0,297.52,85.47,248.56)" gradientUnits="userSpaceOnUse"><stop offset="1.3043478260869565%" stop-opacity="1" style="stop-color:rgb(27,23,36)"/><stop offset="15.217391304347828%" stop-opacity="1" style="stop-color:rgb(24,23,28)"/><stop offset="33.47826086956522%" stop-opacity="1" style="stop-color:rgb(32,31,34)"/><stop offset="56.086956521739125%" stop-opacity="1" style="stop-color:rgb(46,43,64)"/><stop offset="79.56521739130434%" stop-opacity="1" style="stop-color:rgb(47,55,74)"/><stop offset="98.69565217391305%" stop-opacity="1" style="stop-color:rgb(42,49,55)"/></linearGradient><path d=" M 160.61 544.11 L 161.1 336.21 C 161.1 336.21 142.07 330.2 115.02 305.16 C 87.97 280.12 87.47 248.56 87.47 248.56 L 85.47 458.42 C 85.47 458.42 86.41 481.65 108.01 512.51 C 120.43 530.25 141.63 541.2 152.95 546.08 L 160.61 544.11 Z " fill="url(#_lgradient_54)"/><linearGradient id="_lgradient_55" x1="0" y1="0.5" x2="1" y2="0.5" gradientTransform="matrix(75.63,0,0,297.52,85.47,248.56)" gradientUnits="userSpaceOnUse"><stop offset="0.0003966679889920468%" stop-opacity="1" style="stop-color:rgb(5,18,45)"/><stop offset="20.434782608695652%" stop-opacity="1" style="stop-color:rgb(21,23,53)"/><stop offset="42.173913043478265%" stop-opacity="1" style="stop-color:rgb(22,36,68)"/><stop offset="62.60869565217392%" stop-opacity="1" style="stop-color:rgb(45,60,85)"/><stop offset="80%" stop-opacity="1" style="stop-color:rgb(43,78,111)"/><stop offset="99.1304347826087%" stop-opacity="1" style="stop-color:rgb(27,74,111)"/></linearGradient><path d=" M 160.61 544.11 L 161.1 336.21 C 161.1 336.21 142.07 330.2 115.02 305.16 C 87.97 280.12 87.47 248.56 87.47 248.56 L 85.47 458.42 C 85.47 458.42 86.41 481.65 108.01 512.51 C 120.43 530.25 141.63 541.2 152.95 546.08 L 160.61 544.11 Z " fill="url(#_lgradient_55)"/><g style="opacity:0.8;"><g opacity="0.56"><path d=" M 92.24 315.14 L 92.24 321.8 L 142.9 359.01 L 143.01 352.22 L 92.24 315.14 Z " fill="rgb(255,255,255)"/></g><g opacity="0.56"><path d=" M 92.24 325.4 L 92.24 332.07 L 142.9 369.28 L 143.01 362.48 L 92.24 325.4 Z " fill="rgb(255,255,255)"/></g><g opacity="0.56"><path d=" M 92.24 335.67 L 92.24 342.34 L 142.9 379.55 L 143.01 372.75 L 92.24 335.67 Z " fill="rgb(255,255,255)"/></g><g opacity="0.56"><path d=" M 92.24 345.94 L 92.24 352.6 L 142.9 389.81 L 143.01 383.02 L 92.24 345.94 Z " fill="rgb(255,255,255)"/></g><g opacity="0.56"><path d=" M 92.24 356.2 L 92.24 362.87 L 114.95 379.81 L 115.06 373.01 L 92.24 356.2 Z " fill="rgb(255,255,255)"/></g><g opacity="0.56"><path d=" M 92.24 366.47 L 92.24 373.14 L 142.9 410.35 L 143.01 403.55 L 92.24 366.47 Z " fill="rgb(255,255,255)"/></g><g opacity="0.56"><path d=" M 92.24 376.74 L 92.24 383.4 L 142.9 420.61 L 143.01 413.82 L 92.24 376.74 Z " fill="rgb(255,255,255)"/></g><g opacity="0.56"><path d=" M 92.24 387 L 92.24 393.67 L 142.9 430.88 L 143.01 424.08 L 92.24 387 Z " fill="rgb(255,255,255)"/></g><g opacity="0.56"><path d=" M 92.24 397.27 L 92.24 403.94 L 142.9 441.15 L 143.01 434.35 L 92.24 397.27 Z " fill="rgb(255,255,255)"/></g><g opacity="0.56"><path d=" M 92.24 427.55 L 92.24 434.22 L 142.9 471.43 L 143.01 464.63 L 92.24 427.55 Z " fill="rgb(255,255,255)"/></g><g opacity="0.56"><path d=" M 92.24 437.82 L 92.24 444.48 L 142.9 481.69 L 143.01 474.9 L 92.24 437.82 Z " fill="rgb(255,255,255)"/></g><g opacity="0.56"><path d=" M 92.24 448.08 L 92.24 454.75 L 142.9 491.96 L 143.01 485.16 L 92.24 448.08 Z " fill="rgb(255,255,255)"/></g><g opacity="0.56"><path d=" M 92.24 458.35 L 92.24 465.02 L 142.9 502.23 L 143.01 495.43 L 92.24 458.35 Z " fill="rgb(255,255,255)"/></g></g><linearGradient id="_lgradient_56" x1="0" y1="0.5" x2="1" y2="0.5" gradientTransform="matrix(73.89,0,0,94.52,87.21,248.56)" gradientUnits="userSpaceOnUse"><stop offset="0.0035187440799988425%" stop-opacity="1" style="stop-color:rgb(161,186,255)"/><stop offset="43.32275642294455%" stop-opacity="1" style="stop-color:rgb(255,255,255)"/></linearGradient><path d=" M 87.47 248.56 L 87.21 275.99 C 97.1 297.65 118.25 328.79 161.08 343.08 L 161.1 336.21 C 161.1 336.21 142.07 330.2 115.02 305.16 C 87.98 280.12 87.47 248.56 87.47 248.56 Z " fill="url(#_lgradient_56)"/><linearGradient id="_lgradient_57" x1="0" y1="0.5" x2="6.123233995736766e-17" y2="-0.5" gradientTransform="matrix(7.62,0,0,209.6,153.51,336.21)" gradientUnits="userSpaceOnUse"><stop offset="5.222185109999998%" stop-opacity="1" style="stop-color:rgb(161,186,255)"/><stop offset="42.89969311474801%" stop-opacity="1" style="stop-color:rgb(255,255,255)"/></linearGradient><path d=" M 161.1 336.21 L 153.51 340.69 L 153.51 545.81 L 161.13 544.29 L 161.1 336.21 Z " fill="url(#_lgradient_57)"/></g><linearGradient id="_lgradient_58" x1="0" y1="0.5" x2="0.000017348938699059134" y2="1.499999999849507" gradientTransform="matrix(8.62,0,0,216.31,610.32,180.85)" gradientUnits="userSpaceOnUse"><stop offset="0.20133142226006315%" stop-opacity="1" style="stop-color:rgb(161,186,255)"/><stop offset="44.634721952249656%" stop-opacity="1" style="stop-color:rgb(255,255,255)"/></linearGradient><path d=" M 610.32 183.79 L 610.32 397.16 L 618.94 392.63 L 618.94 180.85 L 610.32 183.79 Z " fill="url(#_lgradient_58)"/></g><circle vector-effect="non-scaling-stroke" cx="692.01" cy="172.48" r="5.710000000000036" fill="rgb(179,239,255)"/><g><circle vector-effect="non-scaling-stroke" cx="179.39" cy="131.38" r="5.710000000000008" fill="rgb(139,191,155)"/><g><circle vector-effect="non-scaling-stroke" cx="267.3" cy="74.28999999999999" r="12.560000000000002" fill="rgb(139,191,155)"/><g opacity="0.6"><circle vector-effect="non-scaling-stroke" cx="65.66" cy="200.91" r="9.420000000000002" fill="rgb(139,191,155)"/></g><circle vector-effect="non-scaling-stroke" cx="430.56" cy="81.14" r="5.7099999999999795" fill="rgb(139,191,155)"/><path d=" M 346.08 77.95 L 347.28 80.39 L 349.97 80.78 L 348.02 82.67 L 348.48 85.35 L 346.08 84.09 L 343.68 85.35 L 344.13 82.67 L 342.19 80.78 L 344.88 80.39 L 346.08 77.95 Z " fill="rgb(255,255,255)"/><g opacity="0.4"><path d=" M 103.34 139.96 L 104.54 142.4 L 107.23 142.79 L 105.28 144.69 L 105.74 147.36 L 103.34 146.1 L 100.93 147.36 L 101.39 144.69 L 99.45 142.79 L 102.14 142.4 L 103.34 139.96 Z " fill="rgb(255,255,255)"/></g><path d=" M 60.52 285.54 L 61.72 287.98 L 64.41 288.37 L 62.47 290.27 L 62.92 292.94 L 60.52 291.68 L 58.12 292.94 L 58.58 290.27 L 56.63 288.37 L 59.32 287.98 L 60.52 285.54 Z " fill="rgb(255,255,255)"/><path d=" M 744.91 236.32 L 746.11 238.76 L 748.8 239.15 L 746.86 241.05 L 747.31 243.72 L 744.91 242.46 L 742.51 243.72 L 742.97 241.05 L 741.02 239.15 L 743.71 238.76 L 744.91 236.32 Z " fill="rgb(255,255,255)" fill-opacity="0.34"/><path d=" M 707.19 106.1 L 708.39 108.54 L 711.08 108.93 L 709.14 110.83 L 709.6 113.5 L 707.19 112.24 L 704.79 113.5 L 705.25 110.83 L 703.3 108.93 L 705.99 108.54 L 707.19 106.1 Z " fill="rgb(255,255,255)" fill-opacity="0.34"/></g></g><g><g><g><path d=" M 647.85 371.11 L 647.85 381.52 L 666.07 392.25 L 666.07 381.52 L 647.85 371.11 Z " fill="rgb(86,171,221)"/><path d=" M 647.85 371.11 L 666.07 360.38 L 684.46 371 L 666.07 381.52 L 647.85 371.11 Z " fill="rgb(0,155,221)"/><path d=" M 684.46 371 L 684.46 381.52 L 666.07 392.25 L 666.07 381.52 L 684.46 371 Z " fill="rgb(43,115,181)"/></g><g><path d=" M 620.35 387.05 L 620.35 397.45 L 638.56 408.18 L 638.56 397.45 L 620.35 387.05 Z " fill="rgb(86,171,221)"/><path d=" M 620.35 387.05 L 638.56 376.32 L 656.96 386.94 L 638.56 397.45 L 620.35 387.05 Z " fill="rgb(0,155,221)"/><path d=" M 656.96 386.94 L 656.96 397.45 L 638.56 408.18 L 638.56 397.45 L 656.96 386.94 Z " fill="rgb(43,115,181)"/></g><g><path d=" M 675.41 387.05 L 675.41 397.45 L 693.62 408.18 L 693.62 397.45 L 675.41 387.05 Z " fill="rgb(86,171,221)"/><path d=" M 675.41 387.05 L 693.62 376.32 L 712.02 386.94 L 693.62 397.45 L 675.41 387.05 Z " fill="rgb(0,155,221)"/><path d=" M 712.02 386.94 L 712.02 397.45 L 693.62 408.18 L 693.62 397.45 L 712.02 386.94 Z " fill="rgb(43,115,181)"/></g><g><path d=" M 647.9 402.98 L 647.9 413.39 L 666.11 424.12 L 666.11 413.39 L 647.9 402.98 Z " fill="rgb(86,171,221)"/><path d=" M 647.9 402.98 L 666.11 392.25 L 684.51 402.87 L 666.11 413.39 L 647.9 402.98 Z " fill="rgb(0,155,221)"/><path d=" M 684.51 402.87 L 684.51 413.39 L 666.11 424.12 L 666.11 413.39 L 684.51 402.87 Z " fill="rgb(43,115,181)"/></g></g><g style="opacity:0.73;"><g opacity="0.73"><linearGradient id="_lgradient_59" x1="0" y1="0.5" x2="6.123233995736766e-17" y2="-0.5" gradientTransform="matrix(93.33,0,0,334.76,620.42,75.78)" gradientUnits="userSpaceOnUse"><stop offset="1.7262178999999884%" stop-opacity="1" style="stop-color:rgb(142,162,147)"/><stop offset="97.87543140999998%" stop-opacity="0" style="stop-color:rgb(51,0,80)"/></linearGradient><path d=" M 621.35 384.14 L 620.42 75.78 C 620.42 75.78 647.99 80.47 656.38 84.34 C 672.51 91.79 713.75 131.43 713.75 131.43 L 712.79 384.14 L 667.07 410.54 L 621.35 384.14 Z " fill="url(#_lgradient_59)"/></g></g></g><g><g><path d=" M 184.5 524.66 L 184.5 535.07 L 202.71 545.8 L 202.71 535.07 L 184.5 524.66 Z " fill="rgb(86,171,221)"/><path d=" M 184.5 524.66 L 202.71 513.93 L 221.11 524.56 L 202.71 535.07 L 184.5 524.66 Z " fill="rgb(0,155,221)"/><path d=" M 221.11 524.56 L 221.11 535.07 L 202.71 545.8 L 202.71 535.07 L 221.11 524.56 Z " fill="rgb(43,115,181)"/></g><g><path d=" M 156.99 540.6 L 156.99 551 L 175.2 561.74 L 175.2 551 L 156.99 540.6 Z " fill="rgb(86,171,221)"/><path d=" M 156.99 540.6 L 175.2 529.87 L 193.6 540.49 L 175.2 551 L 156.99 540.6 Z " fill="rgb(0,155,221)"/><path d=" M 193.6 540.49 L 193.6 551 L 175.2 561.74 L 175.2 551 L 193.6 540.49 Z " fill="rgb(43,115,181)"/></g><g><path d=" M 212.05 540.6 L 212.05 551 L 230.26 561.74 L 230.26 551 L 212.05 540.6 Z " fill="rgb(86,171,221)"/><path d=" M 212.05 540.6 L 230.26 529.87 L 248.66 540.49 L 230.26 551 L 212.05 540.6 Z " fill="rgb(0,155,221)"/><path d=" M 248.66 540.49 L 248.66 551 L 230.26 561.74 L 230.26 551 L 248.66 540.49 Z " fill="rgb(43,115,181)"/></g><g><path d=" M 184.54 556.53 L 184.54 566.94 L 202.75 577.67 L 202.75 566.94 L 184.54 556.53 Z " fill="rgb(86,171,221)"/><path d=" M 184.54 556.53 L 202.75 545.8 L 221.15 556.42 L 202.75 566.94 L 184.54 556.53 Z " fill="rgb(0,155,221)"/><path d=" M 221.15 556.42 L 221.15 566.94 L 202.75 577.67 L 202.75 566.94 L 221.15 556.42 Z " fill="rgb(43,115,181)"/></g></g><g opacity="0.73"><linearGradient id="_lgradient_60" x1="0" y1="0.5" x2="6.123233995736766e-17" y2="-0.5" gradientTransform="matrix(93.33,0,0,519.45,156.06,47.65)" gradientUnits="userSpaceOnUse"><stop offset="1.7262178999999922%" stop-opacity="1" style="stop-color:rgb(117,119,117)"/><stop offset="97.87543141%" stop-opacity="0" style="stop-color:rgb(51,0,80)"/></linearGradient><path d=" M 156.99 540.69 L 156.06 69.91 C 156.06 69.91 183.01 62.54 192.02 60.49 C 229.63 51.93 249.39 47.65 249.39 47.65 L 248.43 540.7 L 202.71 567.1 L 156.99 540.69 Z " fill="url(#_lgradient_60)"/></g><g style="opacity:0.5;"><g style="opacity:0.5;"><g style="opacity:0.5;"><g opacity="0.5"><linearGradient id="_lgradient_61" x1="0" y1="0.5" x2="0.5832887082557141" y2="1.3122649092638317" gradientTransform="matrix(0.1,0,0,1.49,238.11,521.17)" gradientUnits="userSpaceOnUse"><stop offset="50.60214252341196%" stop-opacity="1" style="stop-color:rgb(255,207,0)"/><stop offset="50.63082248637196%" stop-opacity="1" style="stop-color:rgb(255,213,30)"/><stop offset="50.64625257616196%" stop-opacity="1" style="stop-color:rgb(255,221,76)"/><stop offset="50.65853596155196%" stop-opacity="1" style="stop-color:rgb(255,229,119)"/><stop offset="50.66915608890196%" stop-opacity="1" style="stop-color:rgb(255,236,156)"/><stop offset="50.678719822631955%" stop-opacity="1" style="stop-color:rgb(255,242,187)"/><stop offset="50.687508118491955%" stop-opacity="1" style="stop-color:rgb(255,247,212)"/><stop offset="50.69571202639196%" stop-opacity="1" style="stop-color:rgb(255,251,231)"/><stop offset="50.70345516686196%" stop-opacity="1" style="stop-color:rgb(255,253,245)"/><stop offset="50.71055772822195%" stop-opacity="1" style="stop-color:rgb(255,255,253)"/><stop offset="50.714524823411956%" stop-opacity="1" style="stop-color:rgb(255,255,255)"/></linearGradient><path d=" M 238.11 522.66 C 238.14 522.16 238.17 521.67 238.21 521.17 C 238.17 521.67 238.14 522.16 238.11 522.66 Z " fill="url(#_lgradient_61)"/></g></g><g opacity="0.5"><path d=" M 204.24 481.18 C 201.12 480.98 198.76 478.27 198.96 475.14 C 199.15 472.01 201.83 469.61 204.95 469.81 C 208.04 470.01 210.4 472.73 210.21 475.85 C 210.01 478.99 207.34 481.38 204.24 481.18 Z " fill="rgb(0,214,180)"/></g><g opacity="0.5"><path d=" M 204.96 515.57 C 202.14 515.39 200.01 512.94 200.18 510.1 C 200.36 507.26 202.78 505.09 205.6 505.27 C 208.41 505.45 210.54 507.9 210.37 510.74 C 210.19 513.59 207.77 515.75 204.96 515.57 Z " fill="rgb(0,214,180)"/></g><g opacity="0.5"><path d=" M 192.98 503.63 C 191.22 503.52 189.87 501.99 189.98 500.21 C 190.09 498.42 191.61 497.07 193.38 497.18 C 195.14 497.29 196.49 498.82 196.37 500.61 C 196.26 502.39 194.74 503.74 192.98 503.63 Z " fill="rgb(0,214,180)"/></g><g opacity="0.5"><path d=" M 187.5 456.94 C 184.69 456.76 182.54 454.31 182.72 451.47 C 182.9 448.63 185.32 446.46 188.14 446.64 C 190.95 446.82 193.08 449.27 192.91 452.11 C 192.73 454.96 190.31 457.12 187.5 456.94 Z " fill="rgb(0,214,180)"/></g><g opacity="0.5"><radialGradient id="_rgradient_78" fx="0.49947882200000004" fy="0.499583955" cx="0.49947882200000004" cy="0.499583955" r="0.504828157" gradientTransform="matrix(6.403,0,0,6.463,183.224,471.034)" gradientUnits="userSpaceOnUse"><stop offset="0%" stop-opacity="1" style="stop-color:rgb(214,213,213)"/><stop offset="4.3%" stop-opacity="1" style="stop-color:rgb(183,181,181)"/><stop offset="12.42%" stop-opacity="1" style="stop-color:rgb(129,126,126)"/><stop offset="19.97%" stop-opacity="1" style="stop-color:rgb(87,82,83)"/><stop offset="26.72%" stop-opacity="1" style="stop-color:rgb(56,51,52)"/><stop offset="32.41%" stop-opacity="1" style="stop-color:rgb(38,32,33)"/><stop offset="36.36%" stop-opacity="1" style="stop-color:rgb(31,25,26)"/><stop offset="99.4%" stop-opacity="1" style="stop-color:rgb(0,0,0)"/></radialGradient><path d=" M 186.22 477.49 C 184.46 477.38 183.12 475.85 183.23 474.07 C 183.34 472.29 184.86 470.93 186.62 471.04 C 188.38 471.15 189.73 472.69 189.62 474.47 C 189.5 476.25 187.98 477.6 186.22 477.49 Z " fill="url(#_rgradient_78)"/></g><g opacity="0.5"><path d=" M 165.42 453.41 C 163.66 453.3 162.31 451.77 162.42 449.98 C 162.53 448.19 164.06 446.85 165.82 446.96 C 167.58 447.07 168.93 448.6 168.81 450.39 C 168.7 452.17 167.18 453.52 165.42 453.41 Z " fill="rgb(0,214,180)"/></g><g opacity="0.5"><path d=" M 176.19 429.02 C 174.43 428.91 173.09 427.38 173.2 425.59 C 173.31 423.81 174.83 422.45 176.59 422.57 C 178.35 422.68 179.7 424.22 179.58 426 C 179.48 427.78 177.96 429.13 176.19 429.02 Z " fill="rgb(0,214,180)"/></g><g opacity="0.5"><path d=" M 207.54 438.23 C 204.73 438.05 202.59 435.6 202.76 432.76 C 202.94 429.92 205.37 427.76 208.18 427.93 C 210.99 428.11 213.12 430.56 212.95 433.4 C 212.77 436.25 210.35 438.41 207.54 438.23 Z " fill="rgb(0,214,180)"/></g><g opacity="0.5"><radialGradient id="_rgradient_79" fx="0.495376868" fy="0.57142305" cx="0.495376868" cy="0.57142305" r="0.429795824" gradientTransform="matrix(6.403,0,0,6.473,213.364,443.914)" gradientUnits="userSpaceOnUse"><stop offset="0%" stop-opacity="1" style="stop-color:rgb(255,0,145)"/><stop offset="14.426731400000001%" stop-opacity="1" style="stop-color:rgb(255,23,168)"/><stop offset="23.9970439%" stop-opacity="1" style="stop-color:rgb(178,0,255)"/><stop offset="100%" stop-opacity="0" style="stop-color:rgb(255,9,160)"/></radialGradient><path d=" M 216.36 450.38 C 214.6 450.27 213.26 448.74 213.37 446.95 C 213.48 445.17 215 443.81 216.76 443.92 C 218.52 444.03 219.87 445.57 219.76 447.35 C 219.65 449.14 218.12 450.49 216.36 450.38 Z " fill="url(#_rgradient_79)"/></g><g opacity="0.5"><path d=" M 195.56 426.3 C 193.8 426.19 192.45 424.65 192.56 422.87 C 192.67 421.08 194.2 419.73 195.96 419.84 C 197.72 419.95 199.06 421.48 198.95 423.27 C 198.84 425.06 197.32 426.41 195.56 426.3 Z " fill="rgb(0,214,180)"/></g></g><g opacity="0.5"><path d=" M 214.49 516.16 C 205.99 515.62 199.54 508.23 200.08 499.64 C 200.61 491.06 207.93 484.53 216.42 485.07 C 224.91 485.61 231.36 493.01 230.83 501.59 C 230.3 510.17 222.99 516.69 214.49 516.16 Z " fill="rgb(0,214,180)"/></g><g opacity="0.5"><path d=" M 231.63 521.99 C 223.14 521.45 216.68 514.05 217.22 505.47 C 217.75 496.89 225.07 490.36 233.56 490.9 C 242.05 491.44 248.51 498.83 247.97 507.42 C 247.44 516 240.12 522.53 231.63 521.99 Z " fill="rgb(0,214,180)"/></g><g opacity="0.5"><path d=" M 229.46 501.21 C 220.97 500.67 214.52 493.27 215.05 484.69 C 215.58 476.11 222.9 469.58 231.39 470.12 C 239.88 470.66 246.33 478.05 245.8 486.64 C 245.26 495.22 237.95 501.74 229.46 501.21 Z " fill="rgb(0,214,180)"/></g><g opacity="0.5"><path d=" M 194.12 476.42 C 188.76 476.08 184.68 471.41 185.02 465.99 C 185.36 460.58 189.98 456.45 195.34 456.8 C 200.7 457.14 204.78 461.82 204.44 467.22 C 204.1 472.64 199.49 476.76 194.12 476.42 Z " fill="rgb(0,214,180)"/></g><g opacity="0.5"><path d=" M 188.7 502.47 C 180.21 501.93 173.75 494.53 174.29 485.95 C 174.82 477.37 182.14 470.84 190.63 471.38 C 199.12 471.92 205.57 479.32 205.04 487.9 C 204.5 496.48 197.19 503 188.7 502.47 Z " fill="rgb(0,214,180)"/></g><g opacity="0.5"><path d=" M 202.59 421.11 C 197.89 420.81 194.32 416.72 194.61 411.97 C 194.91 407.23 198.96 403.62 203.66 403.91 C 208.35 404.21 211.93 408.3 211.63 413.05 C 211.34 417.8 207.29 421.41 202.59 421.11 Z " fill="rgb(0,214,180)"/></g><g opacity="0.5"><path d=" M 191.16 431.52 C 189.39 431.41 188.06 429.87 188.17 428.09 C 188.28 426.3 189.8 424.95 191.56 425.06 C 193.32 425.17 194.66 426.7 194.55 428.49 C 194.44 430.28 192.92 431.63 191.16 431.52 Z " fill="rgb(0,214,180)"/></g><g opacity="0.5"><radialGradient id="_rgradient_80" fx="0.495376868" fy="0.57142305" cx="0.495376868" cy="0.57142305" r="0.42855438900000004" gradientTransform="matrix(6.403,0,0,6.454,175.094,472.373)" gradientUnits="userSpaceOnUse"><stop offset="0%" stop-opacity="1" style="stop-color:rgb(255,0,145)"/><stop offset="14.426731400000001%" stop-opacity="1" style="stop-color:rgb(255,23,168)"/><stop offset="23.9970439%" stop-opacity="1" style="stop-color:rgb(178,0,255)"/><stop offset="100%" stop-opacity="0" style="stop-color:rgb(255,9,160)"/></radialGradient><path d=" M 178.09 478.82 C 176.33 478.71 174.99 477.18 175.1 475.4 C 175.21 473.61 176.73 472.26 178.49 472.38 C 180.25 472.49 181.6 474.02 181.49 475.81 C 181.38 477.59 179.85 478.93 178.09 478.82 Z " fill="url(#_rgradient_80)"/></g></g><g><g><g><linearGradient id="_lgradient_62" x1="0" y1="0.5" x2="0.5832890506925921" y2="1.3122646633592616" gradientTransform="matrix(0.1,0,0,1.49,229.11,417.4)" gradientUnits="userSpaceOnUse"><stop offset="47.86923642926054%" stop-opacity="1" style="stop-color:rgb(255,207,0)"/><stop offset="47.89791641774054%" stop-opacity="1" style="stop-color:rgb(255,213,30)"/><stop offset="47.913346521260536%" stop-opacity="1" style="stop-color:rgb(255,221,76)"/><stop offset="47.92562991758054%" stop-opacity="1" style="stop-color:rgb(255,229,119)"/><stop offset="47.93625005438054%" stop-opacity="1" style="stop-color:rgb(255,236,156)"/><stop offset="47.945813796620534%" stop-opacity="1" style="stop-color:rgb(255,242,187)"/><stop offset="47.954602100300534%" stop-opacity="1" style="stop-color:rgb(255,247,212)"/><stop offset="47.96280601550053%" stop-opacity="1" style="stop-color:rgb(255,251,231)"/><stop offset="47.970549162860536%" stop-opacity="1" style="stop-color:rgb(255,253,245)"/><stop offset="47.977651730540536%" stop-opacity="1" style="stop-color:rgb(255,255,253)"/><stop offset="47.98161882926053%" stop-opacity="1" style="stop-color:rgb(255,255,255)"/></linearGradient><path d=" M 229.11 418.89 C 229.14 418.39 229.17 417.9 229.21 417.4 C 229.17 417.89 229.14 418.39 229.11 418.89 Z " fill="url(#_lgradient_62)"/></g><path d=" M 195.24 377.41 C 192.12 377.21 189.76 374.5 189.96 371.37 C 190.15 368.24 192.83 365.84 195.95 366.04 C 199.04 366.24 201.4 368.96 201.21 372.08 C 201.01 375.21 198.34 377.6 195.24 377.41 Z " fill="rgb(0,214,180)" fill-opacity="0.17"/><path d=" M 195.96 411.8 C 193.14 411.62 191.01 409.17 191.18 406.33 C 191.36 403.49 193.78 401.32 196.6 401.5 C 199.41 401.68 201.54 404.13 201.37 406.97 C 201.19 409.81 198.77 411.97 195.96 411.8 Z " fill="rgb(0,214,180)" fill-opacity="0.17"/><radialGradient id="_rgradient_81" fx="0.495376868" fy="0.57142305" cx="0.495376868" cy="0.57142305" r="0.429063404" gradientTransform="matrix(6.404,0,0,6.463,180.974,393.404)" gradientUnits="userSpaceOnUse"><stop offset="0%" stop-opacity="1" style="stop-color:rgb(255,0,145)"/><stop offset="14.426731400000001%" stop-opacity="1" style="stop-color:rgb(255,23,168)"/><stop offset="23.9970439%" stop-opacity="1" style="stop-color:rgb(178,0,255)"/><stop offset="100%" stop-opacity="0" style="stop-color:rgb(255,9,160)"/></radialGradient><path d=" M 183.98 399.86 C 182.22 399.75 180.87 398.22 180.98 396.44 C 181.09 394.65 182.61 393.3 184.38 393.41 C 186.14 393.52 187.49 395.05 187.37 396.84 C 187.26 398.62 185.74 399.97 183.98 399.86 Z " fill="url(#_rgradient_81)"/><path d=" M 178.5 353.16 C 175.69 352.98 173.54 350.53 173.72 347.69 C 173.9 344.85 176.32 342.68 179.14 342.86 C 181.95 343.04 184.08 345.49 183.91 348.33 C 183.73 351.18 181.31 353.34 178.5 353.16 Z " fill="rgb(0,214,180)" fill-opacity="0.17"/><path d=" M 177.22 373.71 C 175.46 373.6 174.12 372.07 174.23 370.28 C 174.34 368.5 175.86 367.14 177.62 367.26 C 179.38 367.37 180.73 368.91 180.62 370.69 C 180.5 372.47 178.98 373.82 177.22 373.71 Z " fill="rgb(0,214,180)" fill-opacity="0.17"/><path d=" M 156.42 349.63 C 154.66 349.52 153.31 347.99 153.42 346.2 C 153.53 344.41 155.06 343.07 156.82 343.18 C 158.58 343.29 159.93 344.82 159.81 346.61 C 159.7 348.39 158.18 349.74 156.42 349.63 Z " fill="rgb(0,214,180)" fill-opacity="0.17"/><path d=" M 167.19 325.24 C 165.43 325.13 164.09 323.6 164.2 321.81 C 164.31 320.03 165.83 318.67 167.59 318.78 C 169.35 318.89 170.7 320.43 170.58 322.21 C 170.48 324 168.96 325.35 167.19 325.24 Z " fill="rgb(0,214,180)" fill-opacity="0.17"/><path d=" M 198.54 334.46 C 195.73 334.28 193.59 331.83 193.76 328.99 C 193.94 326.15 196.37 323.99 199.18 324.16 C 201.99 324.34 204.12 326.79 203.95 329.63 C 203.77 332.48 201.35 334.64 198.54 334.46 Z " fill="rgb(0,214,180)" fill-opacity="0.17"/><path d=" M 207.36 346.6 C 205.6 346.49 204.26 344.96 204.37 343.17 C 204.48 341.39 206 340.03 207.76 340.14 C 209.52 340.25 210.87 341.79 210.76 343.57 C 210.65 345.36 209.12 346.71 207.36 346.6 Z " fill="rgb(0,214,180)" fill-opacity="0.17"/><path d=" M 186.56 322.52 C 184.8 322.41 183.45 320.87 183.56 319.1 C 183.67 317.31 185.2 315.96 186.96 316.07 C 188.72 316.18 190.06 317.71 189.95 319.5 C 189.84 321.28 188.32 322.63 186.56 322.52 Z " fill="rgb(0,214,180)" fill-opacity="0.17"/></g><path d=" M 206.49 412.38 C 197.99 411.84 191.54 404.45 192.08 395.86 C 192.61 387.28 199.93 380.75 208.42 381.29 C 216.91 381.83 223.36 389.23 222.83 397.81 C 222.3 406.39 214.99 412.92 206.49 412.38 Z " fill="rgb(0,214,180)" fill-opacity="0.17"/><path d=" M 223.63 418.22 C 215.14 417.68 208.68 410.28 209.22 401.7 C 209.75 393.12 217.07 386.59 225.56 387.13 C 234.05 387.67 240.51 395.07 239.97 403.65 C 239.44 412.23 232.12 418.75 223.63 418.22 Z " fill="rgb(0,214,180)" fill-opacity="0.17"/><path d=" M 221.46 397.43 C 212.97 396.89 206.52 389.49 207.05 380.91 C 207.58 372.33 214.9 365.8 223.39 366.34 C 231.88 366.88 238.33 374.27 237.8 382.86 C 237.26 391.44 229.95 397.97 221.46 397.43 Z " fill="rgb(0,214,180)" fill-opacity="0.17"/><path d=" M 184.91 372.64 C 179.55 372.3 175.47 367.63 175.81 362.21 C 176.15 356.8 180.77 352.67 186.13 353.02 C 191.49 353.36 195.57 358.04 195.23 363.44 C 194.89 368.86 190.28 372.98 184.91 372.64 Z " fill="rgb(0,214,180)" fill-opacity="0.17"/><path d=" M 172.442 353.121 C 163.952 352.581 157.492 345.181 158.032 336.601 C 158.562 328.021 165.882 321.491 174.372 322.031 C 182.862 322.571 189.312 329.971 188.782 338.551 C 188.252 347.131 180.932 353.661 172.442 353.121 Z " fill="rgb(0,214,180)" fill-opacity="0.17"/><path d=" M 178.442 406.121 C 169.952 405.581 163.492 398.181 164.032 389.601 C 164.562 381.021 171.882 374.491 180.372 375.031 C 188.862 375.571 195.312 382.971 194.782 391.551 C 194.242 400.131 186.932 406.661 178.442 406.121 Z " fill="rgb(0,214,180)" fill-opacity="0.15"/><path d=" M 193.38 317.34 C 188.68 317.04 185.11 312.95 185.4 308.2 C 185.7 303.46 189.75 299.85 194.45 300.14 C 199.14 300.44 202.72 304.53 202.42 309.28 C 202.13 314.02 198.08 317.64 193.38 317.34 Z " fill="rgb(0,214,180)" fill-opacity="0.17"/><path d=" M 181.95 327.74 C 180.18 327.63 178.85 326.09 178.96 324.31 C 179.07 322.52 180.59 321.17 182.35 321.28 C 184.11 321.39 185.45 322.92 185.34 324.71 C 185.23 326.5 183.71 327.86 181.95 327.74 Z " fill="rgb(0,214,180)" fill-opacity="0.17"/><path d=" M 170.09 375.05 C 168.33 374.94 166.99 373.41 167.1 371.63 C 167.21 369.84 168.73 368.49 170.49 368.61 C 172.25 368.72 173.6 370.25 173.49 372.04 C 173.38 373.81 171.85 375.16 170.09 375.05 Z " fill="rgb(0,214,180)" fill-opacity="0.17"/></g><g><mask id="_mask_BitQzV3on5zvWRw4m6DOvt1wvoLpgg79" x="-200%" y="-200%" width="400%" height="400%"><rect x="-200%" y="-200%" width="400%" height="400%" style="fill:white;"/><path d=" M 186.27 483.54 L 223.89 434.17 L 187.87 388.28 L 218.08 327.71" fill-rule="evenodd" fill="black" stroke="none"/></mask><path d=" M 186.27 483.54 L 223.89 434.17 L 187.87 388.28 L 218.08 327.71" fill-rule="evenodd" fill="none" mask="url(#_mask_BitQzV3on5zvWRw4m6DOvt1wvoLpgg79)" vector-effect="non-scaling-stroke" stroke-width="4.254" stroke="rgb(255,255,255)" stroke-linejoin="miter" stroke-linecap="butt" stroke-miterlimit="4"/><path d=" M 186.27 483.54 L 223.89 434.17 L 187.87 388.28 L 218.08 327.71" fill-rule="evenodd" fill="none"/><g><path d=" M 182.52 465.19 L 174 476.69 L 179.62 489.81 L 188.18 478.26 L 182.52 465.19 Z " fill="rgb(0,221,210)"/><path d=" M 202.48 479.89 L 188.18 478.26 L 179.62 489.81 L 193.97 491.59 L 202.48 479.89 Z " fill="rgb(0,204,189)"/><path d=" M 196.75 466.7 L 182.52 465.19 L 188.18 478.26 L 202.48 479.89 L 196.75 466.7 Z " fill="rgb(0,255,236)"/></g><g><path d=" M 209.86 436.58 L 219.01 447.59 L 233.09 445.23 L 223.89 434.17 L 209.86 436.58 Z " fill="rgb(0,221,210)"/><path d=" M 228.88 420.68 L 223.89 434.17 L 233.09 445.23 L 238.22 431.71 L 228.88 420.68 Z " fill="rgb(0,204,189)"/><path d=" M 214.7 423.11 L 209.86 436.58 L 223.89 434.17 L 228.88 420.68 L 214.7 423.11 Z " fill="rgb(0,255,236)"/></g><g><path d=" M 193.38 375.15 L 179.18 376.96 L 173.6 390.1 L 187.87 388.28 L 193.38 375.15 Z " fill="rgb(255,39,127)"/><path d=" M 196.58 399.73 L 187.87 388.28 L 173.6 390.1 L 182.25 401.68 L 196.58 399.73 Z " fill="rgb(116,26,172)"/><path d=" M 202.14 386.47 L 193.38 375.15 L 187.87 388.28 L 196.58 399.73 L 202.14 386.47 Z " fill="rgb(199,26,172)"/></g><g><path d=" M 223.59 314.58 L 209.39 316.39 L 203.81 329.53 L 218.08 327.71 L 223.59 314.58 Z " fill="rgb(0,155,221)"/><path d=" M 226.79 339.17 L 218.08 327.71 L 203.81 329.53 L 212.46 341.12 L 226.79 339.17 Z " fill="rgb(43,115,181)"/><path d=" M 232.35 325.9 L 223.59 314.58 L 218.08 327.71 L 226.79 339.17 L 232.35 325.9 Z " fill="rgb(86,171,221)"/></g></g><g opacity="0.2"><path d=" M 291.91 268.88 C 291.91 276.59 285.66 282.84 277.95 282.84 C 270.24 282.84 263.99 276.59 263.99 268.88 C 263.99 261.17 270.24 254.92 277.95 254.92 C 285.66 254.92 291.91 261.17 291.91 268.88 Z " fill="rgb(62,168,101)"/></g><g opacity="0.3"><path d=" M 287.63 268.88 C 287.63 274.22 283.3 278.56 277.95 278.56 C 272.61 278.56 268.27 274.23 268.27 268.88 C 268.27 263.54 272.6 259.2 277.95 259.2 C 283.29 259.2 287.63 263.54 287.63 268.88 Z " fill="rgb(64,138,102)"/></g><g><linearGradient id="_lgradient_63" x1="0" y1="0.5" x2="1" y2="0.5" gradientTransform="matrix(136.05,0,0,86.27,457.56,337.65)" gradientUnits="userSpaceOnUse"><stop offset="0.0015435501700275553%" stop-opacity="1" style="stop-color:rgb(255,255,255)"/><stop offset="12.251642585274201%" stop-opacity="1" style="stop-color:rgb(251,253,255)"/><stop offset="24.761743722347934%" stop-opacity="1" style="stop-color:rgb(239,245,255)"/><stop offset="37.40184591040644%" stop-opacity="1" style="stop-color:rgb(218,233,255)"/><stop offset="50.1319488260698%" stop-opacity="1" style="stop-color:rgb(189,217,255)"/><stop offset="62.952052469338014%" stop-opacity="1" style="stop-color:rgb(152,195,255)"/><stop offset="75.82215651683111%" stop-opacity="1" style="stop-color:rgb(107,169,255)"/><stop offset="88.49225894742457%" stop-opacity="1" style="stop-color:rgb(55,138,255)"/><stop offset="100%" stop-opacity="1" style="stop-color:rgb(0,106,255)"/></linearGradient><path d=" M 457.56 369.05 C 457.56 369.05 490.86 393.79 499.74 397.28 C 508.62 400.77 511.79 400.13 522.89 402.99 C 533.99 405.84 557.46 409.33 570.46 413.77 C 583.46 418.21 593.61 423.92 593.61 423.92 C 593.61 423.92 588.22 414.72 589.17 410.92 C 590.12 407.12 590.12 404.89 590.12 404.89 C 590.12 404.89 584.09 404.26 575.85 398.86 C 567.6 393.47 552.38 380.78 533.99 376.98 C 515.6 373.17 508.3 374.44 508.3 374.44 L 471.2 337.65 L 457.56 369.05 Z " fill="url(#_lgradient_63)"/><path d=" M 590.12 404.88 L 597.31 402.03 C 597.31 402.03 602.81 398.65 608.09 402.88 C 613.38 407.11 617.18 416.2 619.3 418.31 C 621.41 420.42 627.54 421.69 630.93 429.52 C 634.31 437.34 632.62 445.17 630.51 449.39 C 628.4 453.62 625.44 454.25 624.17 453.83 C 622.9 453.41 610.64 437.97 607.04 435.01 C 603.45 432.05 593.61 423.91 593.61 423.91 C 593.61 423.91 587.8 415.77 589.17 410.91 C 590.55 406.05 590.12 404.88 590.12 404.88 Z " fill="rgb(0,214,180)"/><path d=" M 619.3 418.31 C 617.19 416.2 613.38 407.1 608.09 402.88 C 602.8 398.65 597.31 402.03 597.31 402.03 L 596.19 402.48 C 595.01 404.03 593.54 406.63 593.93 409.64 C 594.56 414.5 598.79 419.37 603.66 424.02 C 608.52 428.67 614.65 434.8 616.77 438.61 C 618.11 441.02 620.72 447.74 623.04 452.84 C 623.59 453.41 623.99 453.77 624.17 453.83 C 625.44 454.25 628.4 453.62 630.51 449.39 C 632.62 445.16 634.32 437.34 630.93 429.52 C 627.55 421.69 621.42 420.42 619.3 418.31 Z " fill="rgb(0,0,0)"/><linearGradient id="_lgradient_64" x1="0" y1="0.5" x2="1" y2="0.5" gradientTransform="matrix(66.392,0,0,71.112,426.9,372.22)" gradientUnits="userSpaceOnUse"><stop offset="0.008133550429992246%" stop-opacity="1" style="stop-color:rgb(255,255,255)"/><stop offset="12.257659285502315%" stop-opacity="1" style="stop-color:rgb(251,253,255)"/><stop offset="24.76717495454352%" stop-opacity="1" style="stop-color:rgb(239,245,255)"/><stop offset="37.40668559056916%" stop-opacity="1" style="stop-color:rgb(218,233,255)"/><stop offset="50.13619274219943%" stop-opacity="1" style="stop-color:rgb(189,217,255)"/><stop offset="62.95569640943429%" stop-opacity="1" style="stop-color:rgb(152,195,255)"/><stop offset="75.82519814089395%" stop-opacity="1" style="stop-color:rgb(107,169,255)"/><stop offset="88.49470761545444%" stop-opacity="1" style="stop-color:rgb(55,138,255)"/><stop offset="100%" stop-opacity="1" style="stop-color:rgb(0,106,255)"/></linearGradient><path d=" M 458.62 372.22 L 473.84 395.69 C 473.84 395.69 493.5 429.1 493.29 432.69 C 493.08 436.28 485.68 446.01 478.91 442.63 C 472.14 439.25 467.49 432.27 462.84 427.41 C 458.19 422.55 426.9 392.95 426.9 392.95 L 458.62 372.22 Z " fill="url(#_lgradient_64)"/><path d=" M 501.54 357.42 C 501.54 357.42 497.52 351.45 496.73 350.02 C 495.94 348.59 492.45 340.98 497.52 336.86 C 502.59 332.74 509.41 333.85 514.17 334.48 C 518.93 335.11 520.83 337.18 522.26 336.38 C 523.69 335.59 526.07 331.62 530.51 330.99 C 534.95 330.36 545.57 332.1 551.44 336.86 C 557.31 341.62 550.49 347.48 542.08 349.23 C 533.68 350.97 526.06 356.68 522.73 359.06 C 519.4 361.44 516.12 363.34 516.12 363.34 C 516.12 363.34 514.8 357.63 511.15 356.52 C 507.51 355.41 501.54 357.42 501.54 357.42 Z " fill="rgb(0,214,180)"/><path d=" M 551.43 336.86 C 545.56 332.1 534.94 330.36 530.5 330.99 C 526.06 331.62 523.68 335.59 522.25 336.38 C 520.82 337.17 518.92 335.11 514.16 334.48 C 509.4 333.85 502.58 332.74 497.51 336.86 C 492.44 340.98 495.92 348.59 496.72 350.02 C 496.8 350.16 496.91 350.35 497.04 350.57 C 499.61 351.1 504.5 351.94 508.29 351.61 C 513.68 351.13 516.85 348.44 523.2 348.76 C 529.05 349.05 547.73 348.66 553.56 341.38 C 553.83 339.86 553.22 338.31 551.43 336.86 Z " fill="rgb(0,0,0)"/><linearGradient id="_lgradient_65" x1="0" y1="0.5" x2="1" y2="0.5" gradientTransform="matrix(24.77,0,0,22.654,315.7,239.88)" gradientUnits="userSpaceOnUse"><stop offset="0.007266855070009492%" stop-opacity="1" style="stop-color:rgb(255,255,255)"/><stop offset="12.257711915323934%" stop-opacity="1" style="stop-color:rgb(251,253,255)"/><stop offset="24.768166421754678%" stop-opacity="1" style="stop-color:rgb(239,245,255)"/><stop offset="37.40862565127382%" stop-opacity="1" style="stop-color:rgb(218,233,255)"/><stop offset="50.13908815062342%" stop-opacity="1" style="stop-color:rgb(189,217,255)"/><stop offset="62.95955391980345%" stop-opacity="1" style="stop-color:rgb(152,195,255)"/><stop offset="75.83002150555593%" stop-opacity="1" style="stop-color:rgb(107,169,255)"/><stop offset="88.50048182501855%" stop-opacity="1" style="stop-color:rgb(55,138,255)"/><stop offset="100%" stop-opacity="1" style="stop-color:rgb(0,106,255)"/></linearGradient><path d=" M 315.7 239.88 C 315.7 239.88 316.26 245.82 317.43 248.41 C 318.61 251 322.35 255.29 324.53 258.2 C 326.71 261.11 326.62 263.52 329.94 262.13 C 333.26 260.74 340.47 255.49 340.47 255.49 L 315.7 239.88 Z " fill="url(#_lgradient_65)"/><linearGradient id="_lgradient_66" x1="0" y1="0.5" x2="1" y2="0.5" gradientTransform="matrix(81.446,0,0,56.514,285.013,260.784)" gradientUnits="userSpaceOnUse"><stop offset="0%" stop-opacity="1" style="stop-color:rgb(255,255,255)"/><stop offset="26.202145005771175%" stop-opacity="1" style="stop-color:rgb(253,254,255)"/><stop offset="39.9531808106993%" stop-opacity="1" style="stop-color:rgb(245,249,255)"/><stop offset="50.80399815495168%" stop-opacity="1" style="stop-color:rgb(231,241,255)"/><stop offset="60.15470250230279%" stop-opacity="1" style="stop-color:rgb(212,230,255)"/><stop offset="68.52533302501178%" stop-opacity="1" style="stop-color:rgb(187,216,255)"/><stop offset="76.20591156914615%" stop-opacity="1" style="stop-color:rgb(157,198,255)"/><stop offset="83.3564501877088%" stop-opacity="1" style="stop-color:rgb(120,176,255)"/><stop offset="90.09695792045174%" stop-opacity="1" style="stop-color:rgb(78,152,255)"/><stop offset="96.26742271437222%" stop-opacity="1" style="stop-color:rgb(32,125,255)"/><stop offset="99.9977037%" stop-opacity="1" style="stop-color:rgb(0,106,255)"/></linearGradient><path d=" M 366.41 266.63 C 366.41 266.63 361.8 288.7 358.94 298.27 C 356.07 307.84 351.32 317.03 348.04 317.26 C 344.77 317.48 337.1 316.99 327.18 308.61 C 317.26 300.23 305.64 293.54 303.01 292.95 C 300.38 292.36 294.55 292.42 291.88 288.61 C 289.21 284.8 284.55 279.16 285.05 277.5 C 285.55 275.84 291.93 272.38 293.82 272.75 C 295.71 273.12 303.66 276.7 306.02 280.21 C 308.38 283.72 310.18 287.07 316.18 290.47 C 322.18 293.87 328.03 294.42 334.41 296.53 C 340.79 298.64 340.79 298.64 340.79 298.64 C 340.79 298.64 345.12 273.48 348.08 268.95 C 351.04 264.42 354.42 259.82 360.9 260.96 C 367.36 262.11 366.41 266.63 366.41 266.63 Z " fill="url(#_lgradient_66)"/><linearGradient id="_lgradient_67" x1="0" y1="0.5" x2="1" y2="0.5" gradientTransform="matrix(81.681,0,0,89.708,391.6,305.29)" gradientUnits="userSpaceOnUse"><stop offset="1.3043478260869565%" stop-opacity="1" style="stop-color:rgb(164,188,193)"/><stop offset="46.95652173913044%" stop-opacity="1" style="stop-color:rgb(85,162,113)"/><stop offset="99.1304347826087%" stop-opacity="1" style="stop-color:rgb(7,136,115)"/></linearGradient><path d=" M 391.6 342.41 C 391.6 342.41 393.82 353.83 400.48 366.51 C 407.14 379.2 410.63 387.76 412.85 391.88 C 415.07 396 418.56 395.37 425.22 393.78 C 431.88 392.19 432.83 390.29 437.59 388.71 C 442.35 387.12 454.4 383 457.57 375.07 C 460.74 367.14 460.11 363.02 463.6 360.16 C 467.09 357.31 469.94 351.6 471.21 344.3 C 472.48 337.01 473.75 330.03 473.11 325.27 C 472.48 320.51 468.04 316.71 468.04 316.71 C 468.04 316.71 462.01 318.3 452.18 312.9 C 442.35 307.51 436.32 307.83 429.03 306.56 C 421.74 305.29 414.44 305.29 414.44 305.29" fill="url(#_lgradient_67)"/><path d=" M 391.6 342.41 C 391.6 342.41 393.82 353.83 400.48 366.51 C 407.14 379.2 410.63 387.76 412.85 391.88 C 415.07 396 418.56 395.37 425.22 393.78 C 431.88 392.19 432.83 390.29 437.59 388.71 C 442.35 387.12 454.4 383 457.57 375.07 C 460.74 367.14 460.11 363.02 463.6 360.16 C 467.09 357.31 469.94 351.6 471.21 344.3 C 472.48 337.01 473.75 330.03 473.11 325.27 C 472.48 320.51 468.04 316.71 468.04 316.71 C 468.04 316.71 462.01 318.3 452.18 312.9 C 442.35 307.51 436.32 307.83 429.03 306.56 C 421.74 305.29 414.44 305.29 414.44 305.29" fill="rgb(0,0,0)"/><linearGradient id="_lgradient_68" x1="0" y1="0.5" x2="1" y2="0.5" gradientTransform="matrix(71.352,0,0,75.175,343.042,267.35)" gradientUnits="userSpaceOnUse"><stop offset="0%" stop-opacity="1" style="stop-color:rgb(0,214,180)"/><stop offset="16.08695652173913%" stop-opacity="1" style="stop-color:rgb(59,189,167)"/><stop offset="33.91304347826087%" stop-opacity="1" style="stop-color:rgb(100,204,187)"/><stop offset="53.91304347826087%" stop-opacity="1" style="stop-color:rgb(67,183,165)"/><stop offset="71.73913043478261%" stop-opacity="1" style="stop-color:rgb(34,96,85)"/><stop offset="83.47826086956522%" stop-opacity="1" style="stop-color:rgb(13,85,73)"/><stop offset="99.1304347826087%" stop-opacity="1" style="stop-color:rgb(38,39,51)"/></linearGradient><path d=" M 345.51 267.35 C 345.51 267.35 341.92 284.05 343.4 289.76 C 344.88 295.47 347.63 307.1 353.34 308.79 C 359.05 310.48 364.97 309 364.97 309 C 364.97 309 377.44 321.9 382.73 329.93 C 388.02 337.96 391.61 342.4 391.61 342.4 C 391.61 342.4 398.59 344.3 405.56 333.31 C 412.54 322.32 416.77 305.61 412.96 302.44 C 409.15 299.27 407.89 299.27 405.77 297.15 C 403.66 295.04 371.73 269.88 371.73 269.88 L 345.51 267.35 Z " fill="url(#_lgradient_68)"/><linearGradient id="_lgradient_69" x1="0" y1="0.5" x2="0.03694752232624877" y2="-0.49931720719396766" gradientTransform="matrix(61.48,0,0,87.202,350.042,275.754)" gradientUnits="userSpaceOnUse"><stop offset="0%" stop-opacity="1" style="stop-color:rgb(255,255,255)"/><stop offset="13.78550013402043%" stop-opacity="1" style="stop-color:rgb(253,254,255)"/><stop offset="30.121606783520427%" stop-opacity="1" style="stop-color:rgb(245,249,255)"/><stop offset="43.01228003058042%" stop-opacity="1" style="stop-color:rgb(231,241,255)"/><stop offset="54.12083255224041%" stop-opacity="1" style="stop-color:rgb(212,230,255)"/><stop offset="64.06506619997242%" stop-opacity="1" style="stop-color:rgb(187,216,255)"/><stop offset="73.1895243140204%" stop-opacity="1" style="stop-color:rgb(157,198,255)"/><stop offset="81.68429977176042%" stop-opacity="1" style="stop-color:rgb(120,176,255)"/><stop offset="89.6919622312244%" stop-opacity="1" style="stop-color:rgb(78,152,255)"/><stop offset="97.02241881503642%" stop-opacity="1" style="stop-color:rgb(32,125,255)"/><stop offset="100%" stop-opacity="1" style="stop-color:rgb(5,109,255)"/></linearGradient><path d=" M 356.91 275.85 C 356.91 275.85 380.91 282.19 391.27 285.89 C 401.62 289.59 411.46 295.35 411.52 298.97 C 411.58 302.58 410.59 310.99 400.8 321.41 C 391.01 331.83 382.99 344.23 382.19 347.09 C 381.39 349.95 381.12 356.36 376.78 359.08 C 372.44 361.79 365.79 363.46 363.99 362.82 C 362.2 362.18 358.94 358.1 359.46 356.04 C 359.97 353.98 364.37 345.45 368.37 343.06 C 372.37 340.67 376.15 338.88 380.23 332.48 C 384.31 326.08 385.25 319.68 387.94 312.78 C 390.63 305.88 390.63 305.88 390.63 305.88 C 390.63 305.88 363.21 299.67 358.41 296.16 C 353.6 292.65 348.74 288.66 350.36 281.61 C 351.99 274.54 356.91 275.85 356.91 275.85 Z " fill="url(#_lgradient_69)"/><linearGradient id="_lgradient_70" x1="0" y1="0.5" x2="1" y2="0.5" gradientTransform="matrix(46.327,0,0,86.841,469.795,356.384)" gradientUnits="userSpaceOnUse"><stop offset="0%" stop-opacity="1" style="stop-color:rgb(255,255,255)"/><stop offset="12.242573173511726%" stop-opacity="1" style="stop-color:rgb(251,253,255)"/><stop offset="24.755429705698248%" stop-opacity="1" style="stop-color:rgb(239,245,255)"/><stop offset="37.39831592207216%" stop-opacity="1" style="stop-color:rgb(218,233,255)"/><stop offset="50.13122268903734%" stop-opacity="1" style="stop-color:rgb(189,217,255)"/><stop offset="62.95415000659379%" stop-opacity="1" style="stop-color:rgb(152,195,255)"/><stop offset="75.82708874114537%" stop-opacity="1" style="stop-color:rgb(107,169,255)"/><stop offset="88.49998180771638%" stop-opacity="1" style="stop-color:rgb(55,138,255)"/><stop offset="100%" stop-opacity="1" style="stop-color:rgb(0,106,255)"/></linearGradient><path d=" M 477.65 441.99 C 477.65 441.99 469.19 429.94 469.83 417.25 C 470.46 404.56 471.94 396.95 475.96 391.03 C 479.98 385.11 490.13 375.81 495.62 367.99 C 501.12 360.17 501.54 357.42 501.54 357.42 C 501.54 357.42 508.73 355.09 512.53 357.42 C 516.34 359.75 516.12 363.34 516.12 363.34 C 516.12 363.34 501.11 398.65 497.94 409.22 C 494.77 419.79 494.34 430.15 493.29 433.53 C 492.24 436.91 486.95 446.64 477.65 441.99 Z " fill="url(#_lgradient_70)"/><path d=" M 306.4 293.78 C 306.4 293.78 303.01 292.94 300.06 292.51 C 297.11 292.08 294.77 291.24 292.66 290.4 C 290.55 289.55 289.28 295.05 287.59 295.47 C 285.9 295.89 286.32 291.88 286.74 290.4 C 287.16 288.92 290.55 285.11 292.66 282.15 C 294.77 279.19 291.6 276.23 291.6 276.23 C 291.6 276.23 280.18 271.16 279.13 269.04 C 278.07 266.93 281.03 267.14 288.01 269.67 C 294.99 272.21 299.85 274.74 299.85 274.74 C 299.85 274.74 304.16 276.99 306.02 280.2" fill="rgb(255,255,255)"/><linearGradient id="_lgradient_71" x1="0" y1="0.5" x2="1" y2="0.5" gradientTransform="matrix(194.651,0,0,113.019,305.139,190.081)" gradientUnits="userSpaceOnUse"><stop offset="0%" stop-opacity="1" style="stop-color:rgb(0,0,0)"/><stop offset="46.109111500792025%" stop-opacity="1" style="stop-color:rgb(0,0,0)"/><stop offset="100%" stop-opacity="1" style="stop-color:rgb(0,0,0)"/></linearGradient><path d=" M 316 196.61 C 316 196.61 328.53 184.72 347.74 193.03 C 363.83 199.99 364.01 209.94 374 216.88 C 380.88 221.66 401.38 232.66 422.38 228.33 C 443.38 224.01 464.14 230.92 479.58 250.45 C 495.01 269.98 499.79 281.14 499.79 281.14 C 499.79 281.14 474.47 278.1 457.43 292 C 440.38 305.89 402.57 305.55 381.49 297.54 C 360.41 289.53 346.85 274.58 342.94 268.02 C 339.03 261.46 336.24 255.58 329.47 252.77 C 322.71 249.96 304.64 235.59 305.15 222.44 C 305.65 209.31 308.27 203.15 316 196.61 Z " fill="url(#_lgradient_71)"/><g opacity="0.3"><linearGradient id="_lgradient_72" x1="0" y1="0.5" x2="1" y2="0.5" gradientTransform="matrix(183.79,0,0,92.299,316.01,190.091)" gradientUnits="userSpaceOnUse"><stop offset="0%" stop-opacity="1" style="stop-color:rgb(41,36,45)"/><stop offset="50%" stop-opacity="1" style="stop-color:rgb(39,39,40)"/><stop offset="82.6086956521739%" stop-opacity="1" style="stop-color:rgb(48,48,51)"/><stop offset="97.3913043478261%" stop-opacity="1" style="stop-color:rgb(0,0,0)"/></linearGradient><path d=" M 422.38 228.34 C 401.38 232.66 380.88 221.66 374 216.89 C 364 209.95 363.82 200 347.74 193.04 C 328.66 184.79 316.18 196.45 316.01 196.61 C 335.24 189.61 344.02 196.02 353.51 207.87 C 369.49 227.85 385.46 247.06 408.88 245.55 C 426.58 244.41 447.13 239.84 461.4 249.55 C 475.67 259.25 480.81 267.25 480.81 267.25 C 480.81 267.25 460.26 256.4 438 257.55 C 415.74 258.69 394.62 255.84 379.77 246.7 C 364.93 237.57 355.22 222.72 355.22 222.72 C 355.22 222.72 361.65 263.3 414.59 264.39 C 469.96 265.53 464.82 269.53 478.71 282.39 C 490.12 279.99 499.8 281.15 499.8 281.15 C 499.8 281.15 495.02 269.99 479.59 250.46 C 464.14 230.93 443.38 224.01 422.38 228.34 Z " fill="url(#_lgradient_72)"/></g></g><g style="opacity:0.5;"><g style="opacity:0.5;"><g style="opacity:0.5;"><g opacity="0.5"><linearGradient id="_lgradient_73" x1="0" y1="0.5" x2="0.5832887082557141" y2="1.3122649092638317" gradientTransform="matrix(0.1,0,0,1.49,703.11,372.17)" gradientUnits="userSpaceOnUse"><stop offset="50.60214252341196%" stop-opacity="1" style="stop-color:rgb(255,207,0)"/><stop offset="50.63082248637196%" stop-opacity="1" style="stop-color:rgb(255,213,30)"/><stop offset="50.64625257616196%" stop-opacity="1" style="stop-color:rgb(255,221,76)"/><stop offset="50.65853596155196%" stop-opacity="1" style="stop-color:rgb(255,229,119)"/><stop offset="50.66915608890196%" stop-opacity="1" style="stop-color:rgb(255,236,156)"/><stop offset="50.678719822631955%" stop-opacity="1" style="stop-color:rgb(255,242,187)"/><stop offset="50.687508118491955%" stop-opacity="1" style="stop-color:rgb(255,247,212)"/><stop offset="50.69571202639196%" stop-opacity="1" style="stop-color:rgb(255,251,231)"/><stop offset="50.70345516686196%" stop-opacity="1" style="stop-color:rgb(255,253,245)"/><stop offset="50.71055772822195%" stop-opacity="1" style="stop-color:rgb(255,255,253)"/><stop offset="50.714524823411956%" stop-opacity="1" style="stop-color:rgb(255,255,255)"/></linearGradient><path d=" M 703.11 373.66 C 703.14 373.16 703.17 372.67 703.21 372.17 C 703.17 372.67 703.14 373.16 703.11 373.66 Z " fill="url(#_lgradient_73)"/></g></g><g opacity="0.5"><path d=" M 669.24 332.18 C 666.12 331.98 663.76 329.27 663.96 326.14 C 664.15 323.01 666.83 320.61 669.95 320.81 C 673.04 321.01 675.4 323.73 675.21 326.85 C 675.01 329.99 672.34 332.38 669.24 332.18 Z " fill="rgb(0,214,180)"/></g><g opacity="0.5"><path d=" M 669.96 366.57 C 667.14 366.39 665.01 363.94 665.18 361.1 C 665.36 358.26 667.78 356.09 670.6 356.27 C 673.41 356.45 675.54 358.9 675.37 361.74 C 675.19 364.59 672.77 366.75 669.96 366.57 Z " fill="rgb(0,214,180)"/></g><g opacity="0.5"><path d=" M 657.98 354.63 C 656.22 354.52 654.87 352.99 654.98 351.21 C 655.09 349.42 656.61 348.07 658.38 348.18 C 660.14 348.29 661.49 349.82 661.37 351.61 C 661.26 353.39 659.74 354.74 657.98 354.63 Z " fill="rgb(0,214,180)"/></g><g opacity="0.5"><path d=" M 652.5 307.94 C 649.69 307.76 647.54 305.31 647.72 302.47 C 647.9 299.63 650.32 297.46 653.14 297.64 C 655.95 297.82 658.08 300.27 657.91 303.11 C 657.73 305.96 655.31 308.12 652.5 307.94 Z " fill="rgb(0,214,180)"/></g><g opacity="0.5"><radialGradient id="_rgradient_82" fx="0.49947882200000004" fy="0.499583955" cx="0.49947882200000004" cy="0.499583955" r="0.504828157" gradientTransform="matrix(6.403,0,0,6.463,648.224,322.034)" gradientUnits="userSpaceOnUse"><stop offset="0%" stop-opacity="1" style="stop-color:rgb(214,213,213)"/><stop offset="4.3%" stop-opacity="1" style="stop-color:rgb(183,181,181)"/><stop offset="12.42%" stop-opacity="1" style="stop-color:rgb(129,126,126)"/><stop offset="19.97%" stop-opacity="1" style="stop-color:rgb(87,82,83)"/><stop offset="26.72%" stop-opacity="1" style="stop-color:rgb(56,51,52)"/><stop offset="32.41%" stop-opacity="1" style="stop-color:rgb(38,32,33)"/><stop offset="36.36%" stop-opacity="1" style="stop-color:rgb(31,25,26)"/><stop offset="99.4%" stop-opacity="1" style="stop-color:rgb(0,0,0)"/></radialGradient><path d=" M 651.22 328.49 C 649.46 328.38 648.12 326.85 648.23 325.07 C 648.34 323.29 649.86 321.93 651.62 322.04 C 653.38 322.15 654.73 323.69 654.62 325.47 C 654.5 327.25 652.98 328.6 651.22 328.49 Z " fill="url(#_rgradient_82)"/></g><g opacity="0.5"><path d=" M 630.42 304.41 C 628.66 304.3 627.31 302.77 627.42 300.98 C 627.53 299.19 629.06 297.85 630.82 297.96 C 632.58 298.07 633.93 299.6 633.81 301.39 C 633.7 303.17 632.18 304.52 630.42 304.41 Z " fill="rgb(0,214,180)"/></g><g opacity="0.5"><path d=" M 641.19 280.02 C 639.43 279.91 638.09 278.38 638.2 276.59 C 638.31 274.81 639.83 273.45 641.59 273.57 C 643.35 273.68 644.7 275.22 644.58 277 C 644.48 278.78 642.96 280.13 641.19 280.02 Z " fill="rgb(0,214,180)"/></g><g opacity="0.5"><radialGradient id="_rgradient_83" fx="0.495376868" fy="0.57142305" cx="0.495376868" cy="0.57142305" r="0.42977159200000004" gradientTransform="matrix(10.209,0,0,10.32,667.751,278.921)" gradientUnits="userSpaceOnUse"><stop offset="0%" stop-opacity="1" style="stop-color:rgb(255,0,145)"/><stop offset="14.426731400000001%" stop-opacity="1" style="stop-color:rgb(255,23,168)"/><stop offset="23.9970439%" stop-opacity="1" style="stop-color:rgb(178,0,255)"/><stop offset="100%" stop-opacity="0" style="stop-color:rgb(255,9,160)"/></radialGradient><path d=" M 672.54 289.23 C 669.73 289.05 667.59 286.6 667.76 283.76 C 667.94 280.92 670.37 278.76 673.18 278.93 C 675.99 279.11 678.12 281.56 677.95 284.4 C 677.77 287.25 675.35 289.41 672.54 289.23 Z " fill="url(#_rgradient_83)"/></g><g opacity="0.5"><path d=" M 681.36 301.38 C 679.6 301.27 678.26 299.74 678.37 297.95 C 678.48 296.17 680 294.81 681.76 294.92 C 683.52 295.03 684.87 296.57 684.76 298.35 C 684.65 300.14 683.12 301.49 681.36 301.38 Z " fill="rgb(0,214,180)"/></g><g opacity="0.5"><path d=" M 660.56 277.3 C 658.8 277.19 657.45 275.65 657.56 273.87 C 657.67 272.08 659.2 270.73 660.96 270.84 C 662.72 270.95 664.06 272.48 663.95 274.27 C 663.84 276.06 662.32 277.41 660.56 277.3 Z " fill="rgb(0,214,180)"/></g></g><g opacity="0.5"><path d=" M 679.49 367.16 C 670.99 366.62 664.54 359.23 665.08 350.64 C 665.61 342.06 672.93 335.53 681.42 336.07 C 689.91 336.61 696.36 344.01 695.83 352.59 C 695.3 361.17 687.99 367.69 679.49 367.16 Z " fill="rgb(0,214,180)"/></g><g opacity="0.5"><path d=" M 696.63 372.99 C 688.14 372.45 681.68 365.05 682.22 356.47 C 682.75 347.89 690.07 341.36 698.56 341.9 C 707.05 342.44 713.51 349.83 712.97 358.42 C 712.44 367 705.12 373.53 696.63 372.99 Z " fill="rgb(0,214,180)"/></g><g opacity="0.5"><path d=" M 694.46 352.21 C 685.97 351.67 679.52 344.27 680.05 335.69 C 680.58 327.11 687.9 320.58 696.39 321.12 C 704.88 321.66 711.33 329.05 710.8 337.64 C 710.26 346.22 702.95 352.74 694.46 352.21 Z " fill="rgb(0,214,180)"/></g><g opacity="0.5"><path d=" M 659.12 327.42 C 653.76 327.08 649.68 322.41 650.02 316.99 C 650.36 311.58 654.98 307.45 660.34 307.8 C 665.7 308.14 669.78 312.82 669.44 318.22 C 669.1 323.64 664.49 327.76 659.12 327.42 Z " fill="rgb(0,214,180)"/></g><g opacity="0.5"><path d=" M 653.7 353.47 C 645.21 352.93 638.75 345.53 639.29 336.95 C 639.82 328.37 647.14 321.84 655.63 322.38 C 664.12 322.92 670.57 330.32 670.04 338.9 C 669.5 347.48 662.19 354 653.7 353.47 Z " fill="rgb(0,214,180)"/></g><g opacity="0.5"><path d=" M 667.59 272.11 C 662.89 271.81 659.32 267.72 659.61 262.97 C 659.91 258.23 663.96 254.62 668.66 254.91 C 673.35 255.21 676.93 259.3 676.63 264.05 C 676.34 268.8 672.29 272.41 667.59 272.11 Z " fill="rgb(0,214,180)"/></g><g opacity="0.5"><path d=" M 656.16 282.52 C 654.39 282.41 653.06 280.87 653.17 279.09 C 653.28 277.3 654.8 275.95 656.56 276.06 C 658.32 276.17 659.66 277.7 659.55 279.49 C 659.44 281.28 657.92 282.63 656.16 282.52 Z " fill="rgb(0,214,180)"/></g><g opacity="0.5"><radialGradient id="_rgradient_84" fx="0.495376868" fy="0.57142305" cx="0.495376868" cy="0.57142305" r="0.42855438900000004" gradientTransform="matrix(6.403,0,0,6.454,640.094,323.373)" gradientUnits="userSpaceOnUse"><stop offset="0%" stop-opacity="1" style="stop-color:rgb(255,0,145)"/><stop offset="14.426731400000001%" stop-opacity="1" style="stop-color:rgb(255,23,168)"/><stop offset="23.9970439%" stop-opacity="1" style="stop-color:rgb(178,0,255)"/><stop offset="100%" stop-opacity="0" style="stop-color:rgb(255,9,160)"/></radialGradient><path d=" M 643.09 329.82 C 641.33 329.71 639.99 328.18 640.1 326.4 C 640.21 324.61 641.73 323.26 643.49 323.38 C 645.25 323.49 646.6 325.02 646.49 326.81 C 646.38 328.59 644.85 329.93 643.09 329.82 Z " fill="url(#_rgradient_84)"/></g></g><g><g><g><linearGradient id="_lgradient_74" x1="0" y1="0.5" x2="0.5832890506925921" y2="1.3122646633592616" gradientTransform="matrix(0.1,0,0,1.49,695.11,262.4)" gradientUnits="userSpaceOnUse"><stop offset="47.86923642926054%" stop-opacity="1" style="stop-color:rgb(255,207,0)"/><stop offset="47.89791641774054%" stop-opacity="1" style="stop-color:rgb(255,213,30)"/><stop offset="47.913346521260536%" stop-opacity="1" style="stop-color:rgb(255,221,76)"/><stop offset="47.92562991758054%" stop-opacity="1" style="stop-color:rgb(255,229,119)"/><stop offset="47.93625005438054%" stop-opacity="1" style="stop-color:rgb(255,236,156)"/><stop offset="47.945813796620534%" stop-opacity="1" style="stop-color:rgb(255,242,187)"/><stop offset="47.954602100300534%" stop-opacity="1" style="stop-color:rgb(255,247,212)"/><stop offset="47.96280601550053%" stop-opacity="1" style="stop-color:rgb(255,251,231)"/><stop offset="47.970549162860536%" stop-opacity="1" style="stop-color:rgb(255,253,245)"/><stop offset="47.977651730540536%" stop-opacity="1" style="stop-color:rgb(255,255,253)"/><stop offset="47.98161882926053%" stop-opacity="1" style="stop-color:rgb(255,255,255)"/></linearGradient><path d=" M 695.11 263.89 C 695.14 263.39 695.17 262.9 695.21 262.4 C 695.17 262.89 695.14 263.39 695.11 263.89 Z " fill="url(#_lgradient_74)"/></g><path d=" M 661.24 222.41 C 658.12 222.21 655.76 219.5 655.96 216.37 C 656.15 213.24 658.83 210.84 661.95 211.04 C 665.04 211.24 667.4 213.96 667.21 217.08 C 667.01 220.21 664.34 222.6 661.24 222.41 Z " fill="rgb(0,214,180)" fill-opacity="0.17"/><path d=" M 661.96 256.8 C 659.14 256.62 657.01 254.17 657.18 251.33 C 657.36 248.49 659.78 246.32 662.6 246.5 C 665.41 246.68 667.54 249.13 667.37 251.97 C 667.19 254.81 664.77 256.97 661.96 256.8 Z " fill="rgb(0,214,180)" fill-opacity="0.17"/><radialGradient id="_rgradient_85" fx="0.495376868" fy="0.57142305" cx="0.495376868" cy="0.57142305" r="0.429063404" gradientTransform="matrix(6.404,0,0,6.463,646.974,238.404)" gradientUnits="userSpaceOnUse"><stop offset="0%" stop-opacity="1" style="stop-color:rgb(255,0,145)"/><stop offset="14.426731400000001%" stop-opacity="1" style="stop-color:rgb(255,23,168)"/><stop offset="23.9970439%" stop-opacity="1" style="stop-color:rgb(178,0,255)"/><stop offset="100%" stop-opacity="0" style="stop-color:rgb(255,9,160)"/></radialGradient><path d=" M 649.98 244.86 C 648.22 244.75 646.87 243.22 646.98 241.44 C 647.09 239.65 648.61 238.3 650.38 238.41 C 652.14 238.52 653.49 240.05 653.37 241.84 C 653.26 243.62 651.74 244.97 649.98 244.86 Z " fill="url(#_rgradient_85)"/><path d=" M 644.5 198.16 C 641.69 197.98 639.54 195.53 639.72 192.69 C 639.9 189.85 642.32 187.68 645.14 187.86 C 647.95 188.04 650.08 190.49 649.91 193.33 C 649.73 196.18 647.31 198.34 644.5 198.16 Z " fill="rgb(0,214,180)" fill-opacity="0.17"/><path d=" M 643.22 218.71 C 641.46 218.6 640.12 217.07 640.23 215.28 C 640.34 213.5 641.86 212.14 643.62 212.26 C 645.38 212.37 646.73 213.91 646.62 215.69 C 646.5 217.47 644.98 218.82 643.22 218.71 Z " fill="rgb(0,214,180)" fill-opacity="0.17"/><path d=" M 622.42 194.63 C 620.66 194.52 619.31 192.99 619.42 191.2 C 619.53 189.41 621.06 188.07 622.82 188.18 C 624.58 188.29 625.93 189.82 625.81 191.61 C 625.7 193.39 624.18 194.74 622.42 194.63 Z " fill="rgb(0,214,180)" fill-opacity="0.17"/><path d=" M 633.19 170.24 C 631.43 170.13 630.09 168.6 630.2 166.81 C 630.31 165.03 631.83 163.67 633.59 163.78 C 635.35 163.89 636.7 165.43 636.58 167.21 C 636.48 169 634.96 170.35 633.19 170.24 Z " fill="rgb(0,214,180)" fill-opacity="0.17"/><path d=" M 664.54 179.46 C 661.73 179.28 659.59 176.83 659.76 173.99 C 659.94 171.15 662.37 168.99 665.18 169.16 C 667.99 169.34 670.12 171.79 669.95 174.63 C 669.77 177.48 667.35 179.64 664.54 179.46 Z " fill="rgb(0,214,180)" fill-opacity="0.17"/><path d=" M 673.36 191.6 C 671.6 191.49 670.26 189.96 670.37 188.17 C 670.48 186.39 672 185.03 673.76 185.14 C 675.52 185.25 676.87 186.79 676.76 188.57 C 676.65 190.36 675.12 191.71 673.36 191.6 Z " fill="rgb(0,214,180)" fill-opacity="0.17"/><path d=" M 652.56 167.52 C 650.8 167.41 649.45 165.87 649.56 164.1 C 649.67 162.31 651.2 160.96 652.96 161.07 C 654.72 161.18 656.06 162.71 655.95 164.5 C 655.84 166.28 654.32 167.63 652.56 167.52 Z " fill="rgb(0,214,180)" fill-opacity="0.17"/></g><path d=" M 672.49 257.38 C 663.99 256.84 657.54 249.45 658.08 240.86 C 658.61 232.28 665.93 225.75 674.42 226.29 C 682.91 226.83 689.36 234.23 688.83 242.81 C 688.3 251.39 680.99 257.92 672.49 257.38 Z " fill="rgb(0,214,180)" fill-opacity="0.17"/><path d=" M 689.63 263.22 C 681.14 262.68 674.68 255.28 675.22 246.7 C 675.75 238.12 683.07 231.59 691.56 232.13 C 700.05 232.67 706.51 240.07 705.97 248.65 C 705.44 257.23 698.12 263.75 689.63 263.22 Z " fill="rgb(0,214,180)" fill-opacity="0.17"/><path d=" M 687.46 242.43 C 678.97 241.89 672.52 234.49 673.05 225.91 C 673.58 217.33 680.9 210.8 689.39 211.34 C 697.88 211.88 704.33 219.27 703.8 227.86 C 703.26 236.44 695.95 242.97 687.46 242.43 Z " fill="rgb(0,214,180)" fill-opacity="0.17"/><path d=" M 650.91 217.64 C 645.55 217.3 641.47 212.63 641.81 207.21 C 642.15 201.8 646.77 197.67 652.13 198.02 C 657.49 198.36 661.57 203.04 661.23 208.44 C 660.89 213.86 656.28 217.98 650.91 217.64 Z " fill="rgb(0,214,180)" fill-opacity="0.17"/><path d=" M 638.442 198.121 C 629.952 197.581 623.492 190.181 624.032 181.601 C 624.562 173.021 631.882 166.491 640.372 167.031 C 648.862 167.571 655.312 174.971 654.782 183.551 C 654.252 192.131 646.932 198.661 638.442 198.121 Z " fill="rgb(0,214,180)" fill-opacity="0.17"/><path d=" M 644.442 251.121 C 635.952 250.581 629.492 243.181 630.032 234.601 C 630.562 226.021 637.882 219.491 646.372 220.031 C 654.862 220.571 661.312 227.971 660.782 236.551 C 660.242 245.131 652.932 251.661 644.442 251.121 Z " fill="rgb(0,214,180)" fill-opacity="0.17"/><path d=" M 659.38 162.34 C 654.68 162.04 651.11 157.95 651.4 153.2 C 651.7 148.46 655.75 144.85 660.45 145.14 C 665.14 145.44 668.72 149.53 668.42 154.28 C 668.13 159.02 664.08 162.64 659.38 162.34 Z " fill="rgb(0,214,180)" fill-opacity="0.17"/><path d=" M 647.95 172.74 C 646.18 172.63 644.85 171.09 644.96 169.31 C 645.07 167.52 646.59 166.17 648.35 166.28 C 650.11 166.39 651.45 167.92 651.34 169.71 C 651.23 171.5 649.71 172.86 647.95 172.74 Z " fill="rgb(0,214,180)" fill-opacity="0.17"/><path d=" M 636.09 220.05 C 634.33 219.94 632.99 218.41 633.1 216.63 C 633.21 214.84 634.73 213.49 636.49 213.61 C 638.25 213.72 639.6 215.25 639.49 217.04 C 639.38 218.81 637.85 220.16 636.09 220.05 Z " fill="rgb(0,214,180)" fill-opacity="0.17"/></g><g><mask id="_mask_FCfs9uyKPcYPzhmHWS9SAXLkVrTaaaZl" x="-200%" y="-200%" width="400%" height="400%"><rect x="-200%" y="-200%" width="400%" height="400%" style="fill:white;"/><path d=" M 647.63 329.99 L 685.25 280.62 L 649.23 234.73 L 679.44 174.16" fill-rule="evenodd" fill="black" stroke="none"/></mask><path d=" M 647.63 329.99 L 685.25 280.62 L 649.23 234.73 L 679.44 174.16" fill-rule="evenodd" fill="none" mask="url(#_mask_FCfs9uyKPcYPzhmHWS9SAXLkVrTaaaZl)" vector-effect="non-scaling-stroke" stroke-width="4.254" stroke="rgb(255,255,255)" stroke-linejoin="miter" stroke-linecap="butt" stroke-miterlimit="4"/><path d=" M 647.63 329.99 L 685.25 280.62 L 649.23 234.73 L 679.44 174.16" fill-rule="evenodd" fill="none"/><g><path d=" M 643.88 311.64 L 635.35 323.14 L 640.98 336.26 L 649.54 324.7 L 643.88 311.64 Z " fill="rgb(0,221,210)"/><path d=" M 663.83 326.34 L 649.54 324.7 L 640.98 336.26 L 655.33 338.03 L 663.83 326.34 Z " fill="rgb(0,204,189)"/><path d=" M 658.11 313.15 L 643.88 311.64 L 649.54 324.7 L 663.83 326.34 L 658.11 313.15 Z " fill="rgb(0,255,236)"/></g><g><path d=" M 671.22 283.03 L 680.37 294.04 L 694.45 291.68 L 685.25 280.62 L 671.22 283.03 Z " fill="rgb(0,221,210)"/><path d=" M 690.24 267.13 L 685.25 280.62 L 694.45 291.68 L 699.58 278.16 L 690.24 267.13 Z " fill="rgb(0,204,189)"/><path d=" M 676.06 269.56 L 671.22 283.03 L 685.25 280.62 L 690.24 267.13 L 676.06 269.56 Z " fill="rgb(0,255,236)"/></g><g><path d=" M 654.74 221.6 L 640.54 223.41 L 634.96 236.55 L 649.23 234.73 L 654.74 221.6 Z " fill="rgb(217,0,127)"/><path d=" M 657.94 246.18 L 649.23 234.73 L 634.96 236.55 L 643.61 248.13 L 657.94 246.18 Z " fill="rgb(172,0,107)"/><path d=" M 663.5 232.92 L 654.74 221.6 L 649.23 234.73 L 657.94 246.18 L 663.5 232.92 Z " fill="rgb(255,0,166)"/></g><g><path d=" M 684.95 161.03 L 670.75 162.84 L 665.17 175.98 L 679.44 174.16 L 684.95 161.03 Z " fill="rgb(0,155,221)"/><path d=" M 688.15 185.61 L 679.44 174.16 L 665.17 175.98 L 673.82 187.57 L 688.15 185.61 Z " fill="rgb(43,115,181)"/><path d=" M 693.71 172.35 L 684.95 161.03 L 679.44 174.16 L 688.15 185.61 L 693.71 172.35 Z " fill="rgb(86,171,221)"/></g></g></g></svg>